<mxfile host="drawio.corp.amazon.com" modified="2024-08-06T09:10:24.496Z" agent="Mozilla/5.0 (Windows NT 10.0; Win64; x64; rv:109.0) Gecko/20100101 Firefox/115.0" etag="GlmAz9EluU8o566tyPaW" version="21.7.4" type="device">
  <diagram name="Page-1" id="ht668-ByR8-m8cAWYHjP">
    <mxGraphModel dx="3589" dy="2095" grid="1" gridSize="10" guides="1" tooltips="1" connect="1" arrows="1" fold="1" page="1" pageScale="1" pageWidth="1169" pageHeight="827" math="0" shadow="0">
      <root>
        <mxCell id="0" />
        <mxCell id="1" parent="0" />
        <mxCell id="_lA7c4IzKAoyL8VmYBdA-12" value="" style="edgeStyle=orthogonalEdgeStyle;rounded=0;orthogonalLoop=1;jettySize=auto;html=1;exitX=1;exitY=0.5;exitDx=0;exitDy=0;exitPerimeter=0;" parent="1" source="_lA7c4IzKAoyL8VmYBdA-6" target="_lA7c4IzKAoyL8VmYBdA-5" edge="1">
          <mxGeometry relative="1" as="geometry">
            <Array as="points">
              <mxPoint x="399" y="-313" />
            </Array>
          </mxGeometry>
        </mxCell>
        <mxCell id="_lA7c4IzKAoyL8VmYBdA-13" value="" style="edgeStyle=orthogonalEdgeStyle;rounded=0;orthogonalLoop=1;jettySize=auto;html=1;exitX=0;exitY=0.5;exitDx=0;exitDy=0;exitPerimeter=0;" parent="1" source="_lA7c4IzKAoyL8VmYBdA-7" target="_lA7c4IzKAoyL8VmYBdA-5" edge="1">
          <mxGeometry relative="1" as="geometry">
            <Array as="points">
              <mxPoint x="399" y="-313" />
            </Array>
          </mxGeometry>
        </mxCell>
        <mxCell id="0u2oyd0TBL4DUJt1gTOr-7" value="AWS Cloud" style="points=[[0,0],[0.25,0],[0.5,0],[0.75,0],[1,0],[1,0.25],[1,0.5],[1,0.75],[1,1],[0.75,1],[0.5,1],[0.25,1],[0,1],[0,0.75],[0,0.5],[0,0.25]];outlineConnect=0;gradientColor=none;html=1;whiteSpace=wrap;fontSize=12;fontStyle=0;container=0;pointerEvents=0;collapsible=0;recursiveResize=0;shape=mxgraph.aws4.group;grIcon=mxgraph.aws4.group_aws_cloud_alt;strokeColor=#232F3E;fillColor=none;verticalAlign=top;align=left;spacingLeft=30;fontColor=#232F3E;dashed=0;" parent="1" vertex="1">
          <mxGeometry x="105" y="-758" width="1058" height="694" as="geometry" />
        </mxCell>
        <mxCell id="_lA7c4IzKAoyL8VmYBdA-27" style="rounded=0;orthogonalLoop=1;jettySize=auto;html=1;entryX=0.5;entryY=0;entryDx=0;entryDy=0;entryPerimeter=0;jumpSize=0;strokeColor=default;exitX=1;exitY=0.5;exitDx=0;exitDy=0;" parent="1" source="eQouyVKehsPhHUxtSlDO-30" target="_lA7c4IzKAoyL8VmYBdA-22" edge="1">
          <mxGeometry relative="1" as="geometry">
            <mxPoint x="901.6956521739135" y="-357.75" as="sourcePoint" />
          </mxGeometry>
        </mxCell>
        <mxCell id="_lA7c4IzKAoyL8VmYBdA-5" value="&lt;span style=&quot;background-color: rgb(255, 255, 255);&quot;&gt;ComfyUI ALB&lt;/span&gt;" style="outlineConnect=0;dashed=0;verticalLabelPosition=bottom;verticalAlign=top;align=center;html=1;shape=mxgraph.aws4.application_load_balancer;fillColor=#8C4FFF;gradientColor=none;sketch=0;fontColor=#232F3E;strokeColor=none;fontStyle=0;aspect=fixed;pointerEvents=1;labelBackgroundColor=none;" parent="1" vertex="1">
          <mxGeometry x="365" y="-513" width="69" height="72" as="geometry" />
        </mxCell>
        <mxCell id="eQouyVKehsPhHUxtSlDO-20" style="edgeStyle=orthogonalEdgeStyle;rounded=0;orthogonalLoop=1;jettySize=auto;html=1;" parent="1" source="_lA7c4IzKAoyL8VmYBdA-8" target="eQouyVKehsPhHUxtSlDO-1" edge="1">
          <mxGeometry relative="1" as="geometry" />
        </mxCell>
        <mxCell id="_lA7c4IzKAoyL8VmYBdA-8" value="Authenticated&lt;br&gt;User" style="sketch=0;outlineConnect=0;fontColor=#232F3E;gradientColor=none;fillColor=#232F3D;strokeColor=none;dashed=0;verticalLabelPosition=bottom;verticalAlign=top;align=center;html=1;fontSize=12;fontStyle=0;aspect=fixed;pointerEvents=1;shape=mxgraph.aws4.authenticated_user;" parent="1" vertex="1">
          <mxGeometry x="5" y="-583.5" width="65" height="65" as="geometry" />
        </mxCell>
        <mxCell id="_lA7c4IzKAoyL8VmYBdA-24" value="" style="edgeStyle=orthogonalEdgeStyle;rounded=0;orthogonalLoop=1;jettySize=auto;html=1;endArrow=classic;endFill=1;dashed=1;" parent="1" source="_lA7c4IzKAoyL8VmYBdA-22" target="_lA7c4IzKAoyL8VmYBdA-23" edge="1">
          <mxGeometry relative="1" as="geometry" />
        </mxCell>
        <mxCell id="_lA7c4IzKAoyL8VmYBdA-22" value="Amazon Cloudwatch" style="sketch=0;points=[[0,0,0],[0.25,0,0],[0.5,0,0],[0.75,0,0],[1,0,0],[0,1,0],[0.25,1,0],[0.5,1,0],[0.75,1,0],[1,1,0],[0,0.25,0],[0,0.5,0],[0,0.75,0],[1,0.25,0],[1,0.5,0],[1,0.75,0]];points=[[0,0,0],[0.25,0,0],[0.5,0,0],[0.75,0,0],[1,0,0],[0,1,0],[0.25,1,0],[0.5,1,0],[0.75,1,0],[1,1,0],[0,0.25,0],[0,0.5,0],[0,0.75,0],[1,0.25,0],[1,0.5,0],[1,0.75,0]];outlineConnect=0;fontColor=#232F3E;fillColor=#E7157B;strokeColor=#ffffff;dashed=0;verticalLabelPosition=bottom;verticalAlign=top;align=center;html=1;fontSize=12;fontStyle=0;aspect=fixed;shape=mxgraph.aws4.resourceIcon;resIcon=mxgraph.aws4.cloudwatch_2;" parent="1" vertex="1">
          <mxGeometry x="864.01" y="-296" width="78" height="78" as="geometry" />
        </mxCell>
        <mxCell id="eQouyVKehsPhHUxtSlDO-23" style="edgeStyle=orthogonalEdgeStyle;rounded=0;orthogonalLoop=1;jettySize=auto;html=1;dashed=1;" parent="1" source="_lA7c4IzKAoyL8VmYBdA-23" target="0u2oyd0TBL4DUJt1gTOr-1" edge="1">
          <mxGeometry relative="1" as="geometry">
            <Array as="points">
              <mxPoint x="1027" y="-146.75" />
            </Array>
          </mxGeometry>
        </mxCell>
        <mxCell id="_lA7c4IzKAoyL8VmYBdA-23" value="Cloudwatch Alarms" style="sketch=0;outlineConnect=0;fontColor=#232F3E;gradientColor=none;fillColor=#E7157B;strokeColor=none;dashed=0;verticalLabelPosition=bottom;verticalAlign=top;align=center;html=1;fontSize=12;fontStyle=0;aspect=fixed;pointerEvents=1;shape=mxgraph.aws4.alarm;labelBackgroundColor=none;spacingTop=0;" parent="1" vertex="1">
          <mxGeometry x="988" y="-296" width="78" height="78" as="geometry" />
        </mxCell>
        <mxCell id="0u2oyd0TBL4DUJt1gTOr-4" style="rounded=0;orthogonalLoop=1;jettySize=auto;html=1;entryX=1;entryY=0.75;entryDx=0;entryDy=0;dashed=1;" parent="1" source="0u2oyd0TBL4DUJt1gTOr-1" target="_lA7c4IzKAoyL8VmYBdA-26" edge="1">
          <mxGeometry relative="1" as="geometry" />
        </mxCell>
        <mxCell id="0u2oyd0TBL4DUJt1gTOr-1" value="Event Rule" style="sketch=0;outlineConnect=0;fontColor=#232F3E;gradientColor=none;fillColor=#E7157B;strokeColor=none;dashed=0;verticalLabelPosition=bottom;verticalAlign=top;align=center;html=1;fontSize=12;fontStyle=0;aspect=fixed;pointerEvents=1;shape=mxgraph.aws4.rule_3;" parent="1" vertex="1">
          <mxGeometry x="858" y="-180.75" width="78" height="68" as="geometry" />
        </mxCell>
        <mxCell id="_lA7c4IzKAoyL8VmYBdA-6" value="Amazon&lt;div&gt;Cognito&lt;/div&gt;" style="sketch=0;points=[[0,0,0],[0.25,0,0],[0.5,0,0],[0.75,0,0],[1,0,0],[0,1,0],[0.25,1,0],[0.5,1,0],[0.75,1,0],[1,1,0],[0,0.25,0],[0,0.5,0],[0,0.75,0],[1,0.25,0],[1,0.5,0],[1,0.75,0]];outlineConnect=0;fontColor=#232F3E;fillColor=#DD344C;strokeColor=#ffffff;dashed=0;verticalLabelPosition=bottom;verticalAlign=top;align=center;html=1;fontSize=12;fontStyle=0;aspect=fixed;shape=mxgraph.aws4.resourceIcon;resIcon=mxgraph.aws4.cognito;" parent="1" vertex="1">
          <mxGeometry x="316" y="-348" width="70" height="70" as="geometry" />
        </mxCell>
        <mxCell id="_lA7c4IzKAoyL8VmYBdA-7" value="AWS&lt;div&gt;Certificate Manager&lt;/div&gt;" style="sketch=0;points=[[0,0,0],[0.25,0,0],[0.5,0,0],[0.75,0,0],[1,0,0],[0,1,0],[0.25,1,0],[0.5,1,0],[0.75,1,0],[1,1,0],[0,0.25,0],[0,0.5,0],[0,0.75,0],[1,0.25,0],[1,0.5,0],[1,0.75,0]];outlineConnect=0;fontColor=#232F3E;fillColor=#DD344C;strokeColor=#ffffff;dashed=0;verticalLabelPosition=bottom;verticalAlign=top;align=center;html=1;fontSize=12;fontStyle=0;aspect=fixed;shape=mxgraph.aws4.resourceIcon;resIcon=mxgraph.aws4.certificate_manager_3;" parent="1" vertex="1">
          <mxGeometry x="413" y="-348" width="70" height="70" as="geometry" />
        </mxCell>
        <mxCell id="eQouyVKehsPhHUxtSlDO-1" value="Route53&lt;div&gt;Hosted Zone&lt;/div&gt;" style="sketch=0;points=[[0,0,0],[0.25,0,0],[0.5,0,0],[0.75,0,0],[1,0,0],[0,1,0],[0.25,1,0],[0.5,1,0],[0.75,1,0],[1,1,0],[0,0.25,0],[0,0.5,0],[0,0.75,0],[1,0.25,0],[1,0.5,0],[1,0.75,0]];outlineConnect=0;fontColor=#232F3E;fillColor=#8C4FFF;strokeColor=#ffffff;dashed=0;verticalLabelPosition=bottom;verticalAlign=top;align=center;html=1;fontSize=12;fontStyle=0;aspect=fixed;shape=mxgraph.aws4.resourceIcon;resIcon=mxgraph.aws4.route_53;" parent="1" vertex="1">
          <mxGeometry x="105" y="-590" width="78" height="78" as="geometry" />
        </mxCell>
        <mxCell id="eQouyVKehsPhHUxtSlDO-22" style="edgeStyle=orthogonalEdgeStyle;rounded=0;orthogonalLoop=1;jettySize=auto;html=1;exitX=1;exitY=0.5;exitDx=0;exitDy=0;exitPerimeter=0;" parent="1" source="eQouyVKehsPhHUxtSlDO-2" target="_lA7c4IzKAoyL8VmYBdA-5" edge="1">
          <mxGeometry relative="1" as="geometry" />
        </mxCell>
        <mxCell id="eQouyVKehsPhHUxtSlDO-2" value="ComfyUI CloudFront&lt;div&gt;Distribution&lt;/div&gt;" style="sketch=0;points=[[0,0,0],[0.25,0,0],[0.5,0,0],[0.75,0,0],[1,0,0],[0,1,0],[0.25,1,0],[0.5,1,0],[0.75,1,0],[1,1,0],[0,0.25,0],[0,0.5,0],[0,0.75,0],[1,0.25,0],[1,0.5,0],[1,0.75,0]];outlineConnect=0;fontColor=#232F3E;fillColor=#8C4FFF;strokeColor=#ffffff;dashed=0;verticalLabelPosition=bottom;verticalAlign=top;align=center;html=1;fontSize=12;fontStyle=0;aspect=fixed;shape=mxgraph.aws4.resourceIcon;resIcon=mxgraph.aws4.cloudfront;" parent="1" vertex="1">
          <mxGeometry x="229" y="-516" width="78" height="78" as="geometry" />
        </mxCell>
        <mxCell id="eQouyVKehsPhHUxtSlDO-3" value="Amazon Bedrock" style="sketch=0;points=[[0,0,0],[0.25,0,0],[0.5,0,0],[0.75,0,0],[1,0,0],[0,1,0],[0.25,1,0],[0.5,1,0],[0.75,1,0],[1,1,0],[0,0.25,0],[0,0.5,0],[0,0.75,0],[1,0.25,0],[1,0.5,0],[1,0.75,0]];outlineConnect=0;fontColor=#232F3E;fillColor=#01A88D;strokeColor=#ffffff;dashed=0;verticalLabelPosition=bottom;verticalAlign=top;align=center;html=1;fontSize=12;fontStyle=0;aspect=fixed;shape=mxgraph.aws4.resourceIcon;resIcon=mxgraph.aws4.bedrock;" parent="1" vertex="1">
          <mxGeometry x="1038" y="-586" width="70" height="70" as="geometry" />
        </mxCell>
        <mxCell id="eQouyVKehsPhHUxtSlDO-4" value="Amazon Rekognition" style="sketch=0;points=[[0,0,0],[0.25,0,0],[0.5,0,0],[0.75,0,0],[1,0,0],[0,1,0],[0.25,1,0],[0.5,1,0],[0.75,1,0],[1,1,0],[0,0.25,0],[0,0.5,0],[0,0.75,0],[1,0.25,0],[1,0.5,0],[1,0.75,0]];outlineConnect=0;fontColor=#232F3E;fillColor=#01A88D;strokeColor=#ffffff;dashed=0;verticalLabelPosition=bottom;verticalAlign=top;align=center;html=1;fontSize=12;fontStyle=0;aspect=fixed;shape=mxgraph.aws4.resourceIcon;resIcon=mxgraph.aws4.rekognition_2;" parent="1" vertex="1">
          <mxGeometry x="1038" y="-480" width="70" height="70" as="geometry" />
        </mxCell>
        <mxCell id="eQouyVKehsPhHUxtSlDO-6" value="" style="group;fontColor=#4D4D4D;" parent="1" vertex="1" connectable="0">
          <mxGeometry x="557" y="-334.75" width="270" height="251" as="geometry" />
        </mxCell>
        <mxCell id="_lA7c4IzKAoyL8VmYBdA-26" value="ComfyUI Admin Panel" style="whiteSpace=wrap;html=1;aspect=fixed;verticalAlign=top;fillColor=none;strokeColor=#464749;dashed=1;fontStyle=0;fontColor=#404040;" parent="eQouyVKehsPhHUxtSlDO-6" vertex="1">
          <mxGeometry width="252.8731343283582" height="251" as="geometry" />
        </mxCell>
        <mxCell id="_lA7c4IzKAoyL8VmYBdA-15" value="Admin panel" style="sketch=0;outlineConnect=0;fontColor=#232F3E;fillColor=#ED7100;strokeColor=#ffffff;dashed=0;verticalLabelPosition=bottom;verticalAlign=top;align=center;html=1;fontSize=12;fontStyle=0;aspect=fixed;shape=mxgraph.aws4.resourceIcon;resIcon=mxgraph.aws4.lambda;points=[[0,0,0],[0.25,0,0],[0.5,0,0],[0.75,0,0],[1,0,0],[0,1,0],[0.25,1,0],[0.5,1,0],[0.75,1,0],[1,1,0],[0,0.25,0],[0,0.5,0],[0,0.75,0],[1,0.25,0],[1,0.5,0],[1,0.75,0]];" parent="eQouyVKehsPhHUxtSlDO-6" vertex="1">
          <mxGeometry x="42.5" y="42.1455223880597" width="65" height="65" as="geometry" />
        </mxCell>
        <mxCell id="_lA7c4IzKAoyL8VmYBdA-17" value="Restart container" style="sketch=0;outlineConnect=0;fontColor=#232F3E;fillColor=#ED7100;strokeColor=#ffffff;dashed=0;verticalLabelPosition=bottom;verticalAlign=top;align=center;html=1;fontSize=12;fontStyle=0;aspect=fixed;shape=mxgraph.aws4.resourceIcon;resIcon=mxgraph.aws4.lambda;points=[[0,0,0],[0.25,0,0],[0.5,0,0],[0.75,0,0],[1,0,0],[0,1,0],[0.25,1,0],[0.5,1,0],[0.75,1,0],[1,1,0],[0,0.25,0],[0,0.5,0],[0,0.75,0],[1,0.25,0],[1,0.5,0],[1,0.75,0]];" parent="eQouyVKehsPhHUxtSlDO-6" vertex="1">
          <mxGeometry x="42.5" y="143.294776119403" width="65" height="65" as="geometry" />
        </mxCell>
        <mxCell id="_lA7c4IzKAoyL8VmYBdA-18" value="Shutdown EC2" style="sketch=0;outlineConnect=0;fontColor=#232F3E;fillColor=#ED7100;strokeColor=#ffffff;dashed=0;verticalLabelPosition=bottom;verticalAlign=top;align=center;html=1;fontSize=12;fontStyle=0;aspect=fixed;shape=mxgraph.aws4.resourceIcon;resIcon=mxgraph.aws4.lambda;points=[[0,0,0],[0.25,0,0],[0.5,0,0],[0.75,0,0],[1,0,0],[0,1,0],[0.25,1,0],[0.5,1,0],[0.75,1,0],[1,1,0],[0,0.25,0],[0,0.5,0],[0,0.75,0],[1,0.25,0],[1,0.5,0],[1,0.75,0]];" parent="eQouyVKehsPhHUxtSlDO-6" vertex="1">
          <mxGeometry x="157.5" y="42.1455223880597" width="65" height="65" as="geometry" />
        </mxCell>
        <mxCell id="_lA7c4IzKAoyL8VmYBdA-19" value="ScaleUp EC2" style="sketch=0;outlineConnect=0;fontColor=#232F3E;fillColor=#ED7100;strokeColor=#ffffff;dashed=0;verticalLabelPosition=bottom;verticalAlign=top;align=center;html=1;fontSize=12;fontStyle=0;aspect=fixed;shape=mxgraph.aws4.resourceIcon;resIcon=mxgraph.aws4.lambda;points=[[0,0,0],[0.25,0,0],[0.5,0,0],[0.75,0,0],[1,0,0],[0,1,0],[0.25,1,0],[0.5,1,0],[0.75,1,0],[1,1,0],[0,0.25,0],[0,0.5,0],[0,0.75,0],[1,0.25,0],[1,0.5,0],[1,0.75,0]];" parent="eQouyVKehsPhHUxtSlDO-6" vertex="1">
          <mxGeometry x="157.5" y="143.294776119403" width="65" height="65" as="geometry" />
        </mxCell>
        <mxCell id="eQouyVKehsPhHUxtSlDO-16" value="Avatar ALB" style="outlineConnect=0;dashed=0;verticalLabelPosition=bottom;verticalAlign=top;align=center;html=1;shape=mxgraph.aws4.application_load_balancer;fillColor=#8C4FFF;gradientColor=none;sketch=0;fontColor=#232F3E;strokeColor=none;fontStyle=0;aspect=fixed;pointerEvents=1;" parent="1" vertex="1">
          <mxGeometry x="365" y="-665" width="69" height="72" as="geometry" />
        </mxCell>
        <mxCell id="eQouyVKehsPhHUxtSlDO-21" style="edgeStyle=orthogonalEdgeStyle;rounded=0;orthogonalLoop=1;jettySize=auto;html=1;exitX=1;exitY=0.5;exitDx=0;exitDy=0;exitPerimeter=0;" parent="1" source="eQouyVKehsPhHUxtSlDO-17" target="eQouyVKehsPhHUxtSlDO-16" edge="1">
          <mxGeometry relative="1" as="geometry" />
        </mxCell>
        <mxCell id="eQouyVKehsPhHUxtSlDO-17" value="Avatar CloudFront&lt;div&gt;Distribution&lt;/div&gt;" style="sketch=0;points=[[0,0,0],[0.25,0,0],[0.5,0,0],[0.75,0,0],[1,0,0],[0,1,0],[0.25,1,0],[0.5,1,0],[0.75,1,0],[1,1,0],[0,0.25,0],[0,0.5,0],[0,0.75,0],[1,0.25,0],[1,0.5,0],[1,0.75,0]];outlineConnect=0;fontColor=#232F3E;fillColor=#8C4FFF;strokeColor=#ffffff;dashed=0;verticalLabelPosition=bottom;verticalAlign=top;align=center;html=1;fontSize=12;fontStyle=0;aspect=fixed;shape=mxgraph.aws4.resourceIcon;resIcon=mxgraph.aws4.cloudfront;" parent="1" vertex="1">
          <mxGeometry x="229" y="-668" width="78" height="78" as="geometry" />
        </mxCell>
        <mxCell id="eQouyVKehsPhHUxtSlDO-18" style="edgeStyle=orthogonalEdgeStyle;rounded=0;orthogonalLoop=1;jettySize=auto;html=1;exitX=1;exitY=0.5;exitDx=0;exitDy=0;exitPerimeter=0;entryX=0;entryY=0.5;entryDx=0;entryDy=0;entryPerimeter=0;" parent="1" source="eQouyVKehsPhHUxtSlDO-1" target="eQouyVKehsPhHUxtSlDO-17" edge="1">
          <mxGeometry relative="1" as="geometry" />
        </mxCell>
        <mxCell id="eQouyVKehsPhHUxtSlDO-19" style="edgeStyle=orthogonalEdgeStyle;rounded=0;orthogonalLoop=1;jettySize=auto;html=1;exitX=1;exitY=0.5;exitDx=0;exitDy=0;exitPerimeter=0;entryX=0;entryY=0.5;entryDx=0;entryDy=0;entryPerimeter=0;" parent="1" source="eQouyVKehsPhHUxtSlDO-1" target="eQouyVKehsPhHUxtSlDO-2" edge="1">
          <mxGeometry relative="1" as="geometry" />
        </mxCell>
        <mxCell id="eQouyVKehsPhHUxtSlDO-24" style="edgeStyle=orthogonalEdgeStyle;rounded=0;orthogonalLoop=1;jettySize=auto;html=1;exitX=0;exitY=0.5;exitDx=0;exitDy=0;startArrow=classic;startFill=1;endArrow=none;endFill=0;dashed=1;" parent="1" source="_lA7c4IzKAoyL8VmYBdA-26" target="_lA7c4IzKAoyL8VmYBdA-5" edge="1">
          <mxGeometry relative="1" as="geometry">
            <Array as="points">
              <mxPoint x="496" y="-209" />
              <mxPoint x="496" y="-420" />
            </Array>
          </mxGeometry>
        </mxCell>
        <mxCell id="eQouyVKehsPhHUxtSlDO-29" style="edgeStyle=orthogonalEdgeStyle;rounded=0;orthogonalLoop=1;jettySize=auto;html=1;entryX=0;entryY=0.5;entryDx=0;entryDy=0;entryPerimeter=0;" parent="1" source="eQouyVKehsPhHUxtSlDO-16" target="eQouyVKehsPhHUxtSlDO-44" edge="1">
          <mxGeometry relative="1" as="geometry">
            <mxPoint x="558" y="-551" as="targetPoint" />
          </mxGeometry>
        </mxCell>
        <mxCell id="eQouyVKehsPhHUxtSlDO-34" value="ECS Cluster" style="points=[[0,0],[0.25,0],[0.5,0],[0.75,0],[1,0],[1,0.25],[1,0.5],[1,0.75],[1,1],[0.75,1],[0.5,1],[0.25,1],[0,1],[0,0.75],[0,0.5],[0,0.25]];outlineConnect=0;gradientColor=none;html=1;whiteSpace=wrap;fontSize=12;fontStyle=0;container=0;pointerEvents=0;collapsible=0;recursiveResize=0;shape=mxgraph.aws4.group;grIcon=mxgraph.aws4.group_spot_fleet;strokeColor=#D86613;fillColor=none;verticalAlign=top;align=left;spacingLeft=30;fontColor=#D86613;dashed=1;" parent="1" vertex="1">
          <mxGeometry x="558" y="-728" width="450" height="387.08" as="geometry" />
        </mxCell>
        <mxCell id="eQouyVKehsPhHUxtSlDO-36" style="edgeStyle=orthogonalEdgeStyle;rounded=0;orthogonalLoop=1;jettySize=auto;html=1;entryX=0;entryY=0.5;entryDx=0;entryDy=0;entryPerimeter=0;" parent="1" source="eQouyVKehsPhHUxtSlDO-16" target="eQouyVKehsPhHUxtSlDO-28" edge="1">
          <mxGeometry relative="1" as="geometry">
            <mxPoint x="636" y="-551" as="sourcePoint" />
          </mxGeometry>
        </mxCell>
        <mxCell id="eQouyVKehsPhHUxtSlDO-37" style="edgeStyle=orthogonalEdgeStyle;rounded=0;orthogonalLoop=1;jettySize=auto;html=1;entryX=0;entryY=0.5;entryDx=0;entryDy=0;entryPerimeter=0;" parent="1" source="_lA7c4IzKAoyL8VmYBdA-5" target="eQouyVKehsPhHUxtSlDO-33" edge="1">
          <mxGeometry relative="1" as="geometry">
            <mxPoint x="636" y="-551" as="sourcePoint" />
          </mxGeometry>
        </mxCell>
        <mxCell id="eQouyVKehsPhHUxtSlDO-40" style="edgeStyle=orthogonalEdgeStyle;rounded=0;orthogonalLoop=1;jettySize=auto;html=1;exitX=1;exitY=0.5;exitDx=0;exitDy=0;exitPerimeter=0;entryX=0;entryY=0.5;entryDx=0;entryDy=0;entryPerimeter=0;" parent="1" source="eQouyVKehsPhHUxtSlDO-28" target="eQouyVKehsPhHUxtSlDO-3" edge="1">
          <mxGeometry relative="1" as="geometry" />
        </mxCell>
        <mxCell id="eQouyVKehsPhHUxtSlDO-41" style="edgeStyle=orthogonalEdgeStyle;rounded=0;orthogonalLoop=1;jettySize=auto;html=1;exitX=1;exitY=0.5;exitDx=0;exitDy=0;exitPerimeter=0;entryX=0;entryY=0.5;entryDx=0;entryDy=0;entryPerimeter=0;" parent="1" source="eQouyVKehsPhHUxtSlDO-28" target="eQouyVKehsPhHUxtSlDO-4" edge="1">
          <mxGeometry relative="1" as="geometry">
            <Array as="points">
              <mxPoint x="1010" y="-551" />
              <mxPoint x="1010" y="-446" />
            </Array>
          </mxGeometry>
        </mxCell>
        <mxCell id="eQouyVKehsPhHUxtSlDO-38" style="edgeStyle=orthogonalEdgeStyle;rounded=0;orthogonalLoop=1;jettySize=auto;html=1;exitX=0.5;exitY=1;exitDx=0;exitDy=0;exitPerimeter=0;entryX=0.5;entryY=0;entryDx=0;entryDy=0;entryPerimeter=0;dashed=1;jumpStyle=arc;" parent="1" source="eQouyVKehsPhHUxtSlDO-28" target="eQouyVKehsPhHUxtSlDO-33" edge="1">
          <mxGeometry relative="1" as="geometry" />
        </mxCell>
        <mxCell id="eQouyVKehsPhHUxtSlDO-35" value="" style="sketch=0;points=[[0,0,0],[0.25,0,0],[0.5,0,0],[0.75,0,0],[1,0,0],[0,1,0],[0.25,1,0],[0.5,1,0],[0.75,1,0],[1,1,0],[0,0.25,0],[0,0.5,0],[0,0.75,0],[1,0.25,0],[1,0.5,0],[1,0.75,0]];outlineConnect=0;fontColor=#232F3E;fillColor=#ED7100;strokeColor=#ffffff;dashed=0;verticalLabelPosition=bottom;verticalAlign=top;align=center;html=1;fontSize=12;fontStyle=0;aspect=fixed;shape=mxgraph.aws4.resourceIcon;resIcon=mxgraph.aws4.ecs;" parent="1" vertex="1">
          <mxGeometry x="558" y="-728" width="25" height="25" as="geometry" />
        </mxCell>
        <mxCell id="eQouyVKehsPhHUxtSlDO-30" value="Auto Scaling group" style="points=[[0,0],[0.25,0],[0.5,0],[0.75,0],[1,0],[1,0.25],[1,0.5],[1,0.75],[1,1],[0.75,1],[0.5,1],[0.25,1],[0,1],[0,0.75],[0,0.5],[0,0.25]];outlineConnect=0;gradientColor=none;html=1;whiteSpace=wrap;fontSize=12;fontStyle=0;container=0;pointerEvents=0;collapsible=0;recursiveResize=0;shape=mxgraph.aws4.groupCenter;grIcon=mxgraph.aws4.group_auto_scaling_group;grStroke=1;strokeColor=#D86613;fillColor=none;verticalAlign=top;align=center;fontColor=#D86613;dashed=1;spacingTop=25;rotation=90;" parent="1" vertex="1">
          <mxGeometry x="843.06" y="-496.98" width="119.92" height="169" as="geometry" />
        </mxCell>
        <mxCell id="eQouyVKehsPhHUxtSlDO-28" value="&lt;span style=&quot;&quot;&gt;AWS Fargate&lt;/span&gt;&lt;div&gt;&lt;span style=&quot;&quot;&gt;Avatar (Streamlit)&lt;/span&gt;&lt;/div&gt;" style="sketch=0;points=[[0,0,0],[0.25,0,0],[0.5,0,0],[0.75,0,0],[1,0,0],[0,1,0],[0.25,1,0],[0.5,1,0],[0.75,1,0],[1,1,0],[0,0.25,0],[0,0.5,0],[0,0.75,0],[1,0.25,0],[1,0.5,0],[1,0.75,0]];outlineConnect=0;fontColor=#232F3E;fillColor=#ED7100;strokeColor=#ffffff;dashed=0;verticalLabelPosition=top;verticalAlign=bottom;align=center;html=1;fontSize=12;fontStyle=0;aspect=fixed;shape=mxgraph.aws4.resourceIcon;resIcon=mxgraph.aws4.fargate;labelBackgroundColor=#FFFFFF;labelPosition=center;" parent="1" vertex="1">
          <mxGeometry x="847" y="-590" width="78" height="78" as="geometry" />
        </mxCell>
        <mxCell id="eQouyVKehsPhHUxtSlDO-33" value="EC2&lt;div style=&quot;font-size: 11px;&quot;&gt;ComfyUI&lt;/div&gt;" style="sketch=0;points=[[0,0,0],[0.25,0,0],[0.5,0,0],[0.75,0,0],[1,0,0],[0,1,0],[0.25,1,0],[0.5,1,0],[0.75,1,0],[1,1,0],[0,0.25,0],[0,0.5,0],[0,0.75,0],[1,0.25,0],[1,0.5,0],[1,0.75,0]];outlineConnect=0;fontColor=#232F3E;fillColor=#ED7100;strokeColor=#ffffff;dashed=0;verticalLabelPosition=bottom;verticalAlign=top;align=center;html=1;fontSize=11;fontStyle=0;aspect=fixed;shape=mxgraph.aws4.resourceIcon;resIcon=mxgraph.aws4.ec2;spacing=0;" parent="1" vertex="1">
          <mxGeometry x="847" y="-464.41999999999996" width="78" height="78" as="geometry" />
        </mxCell>
        <mxCell id="eQouyVKehsPhHUxtSlDO-44" value="&lt;span style=&quot;&quot;&gt;AWS Fargate&lt;/span&gt;&lt;div&gt;&lt;span style=&quot;&quot;&gt;Gallery (Streamlit)&lt;/span&gt;&lt;/div&gt;" style="sketch=0;points=[[0,0,0],[0.25,0,0],[0.5,0,0],[0.75,0,0],[1,0,0],[0,1,0],[0.25,1,0],[0.5,1,0],[0.75,1,0],[1,1,0],[0,0.25,0],[0,0.5,0],[0,0.75,0],[1,0.25,0],[1,0.5,0],[1,0.75,0]];outlineConnect=0;fontColor=#232F3E;fillColor=#ED7100;strokeColor=#ffffff;dashed=0;verticalLabelPosition=top;verticalAlign=bottom;align=center;html=1;fontSize=12;fontStyle=0;aspect=fixed;shape=mxgraph.aws4.resourceIcon;resIcon=mxgraph.aws4.fargate;labelBackgroundColor=#FFFFFF;labelPosition=center;" parent="1" vertex="1">
          <mxGeometry x="847" y="-716" width="78" height="78" as="geometry" />
        </mxCell>
        <mxCell id="5vmEF7pgG5zT6t2itphd-1" value="Amazon S3" style="sketch=0;points=[[0,0,0],[0.25,0,0],[0.5,0,0],[0.75,0,0],[1,0,0],[0,1,0],[0.25,1,0],[0.5,1,0],[0.75,1,0],[1,1,0],[0,0.25,0],[0,0.5,0],[0,0.75,0],[1,0.25,0],[1,0.5,0],[1,0.75,0]];outlineConnect=0;fontColor=#232F3E;fillColor=#7AA116;strokeColor=#ffffff;dashed=0;verticalLabelPosition=bottom;verticalAlign=top;align=center;html=1;fontSize=12;fontStyle=0;aspect=fixed;shape=mxgraph.aws4.resourceIcon;resIcon=mxgraph.aws4.s3;" parent="1" vertex="1">
          <mxGeometry x="1038" y="-694" width="70" height="70" as="geometry" />
        </mxCell>
        <mxCell id="5vmEF7pgG5zT6t2itphd-3" style="edgeStyle=orthogonalEdgeStyle;rounded=0;orthogonalLoop=1;jettySize=auto;html=1;exitX=1;exitY=0.5;exitDx=0;exitDy=0;exitPerimeter=0;entryX=0;entryY=0.75;entryDx=0;entryDy=0;entryPerimeter=0;" parent="1" source="eQouyVKehsPhHUxtSlDO-28" target="5vmEF7pgG5zT6t2itphd-1" edge="1">
          <mxGeometry relative="1" as="geometry">
            <Array as="points">
              <mxPoint x="1010" y="-551" />
              <mxPoint x="1010" y="-641" />
            </Array>
          </mxGeometry>
        </mxCell>
        <mxCell id="5vmEF7pgG5zT6t2itphd-4" style="edgeStyle=orthogonalEdgeStyle;rounded=0;orthogonalLoop=1;jettySize=auto;html=1;exitX=1;exitY=0.5;exitDx=0;exitDy=0;exitPerimeter=0;entryX=0;entryY=0.25;entryDx=0;entryDy=0;entryPerimeter=0;" parent="1" source="eQouyVKehsPhHUxtSlDO-44" target="5vmEF7pgG5zT6t2itphd-1" edge="1">
          <mxGeometry relative="1" as="geometry" />
        </mxCell>
        <mxCell id="eEzp5Qi8Yp392ZO1BSw_-5" value="Amazon&lt;div&gt;Cognito&lt;/div&gt;" style="sketch=0;points=[[0,0,0],[0.25,0,0],[0.5,0,0],[0.75,0,0],[1,0,0],[0,1,0],[0.25,1,0],[0.5,1,0],[0.75,1,0],[1,1,0],[0,0.25,0],[0,0.5,0],[0,0.75,0],[1,0.25,0],[1,0.5,0],[1,0.75,0]];outlineConnect=0;fontColor=#232F3E;fillColor=#DD344C;strokeColor=#ffffff;dashed=0;verticalLabelPosition=bottom;verticalAlign=top;align=center;html=1;fontSize=12;fontStyle=0;aspect=fixed;shape=mxgraph.aws4.resourceIcon;resIcon=mxgraph.aws4.cognito;" vertex="1" parent="1">
          <mxGeometry x="687" y="-650" width="40" height="40" as="geometry" />
        </mxCell>
        <mxCell id="eEzp5Qi8Yp392ZO1BSw_-6" value="AWS&lt;div&gt;Certificate&amp;nbsp;&lt;/div&gt;&lt;div&gt;Manager&lt;/div&gt;" style="sketch=0;points=[[0,0,0],[0.25,0,0],[0.5,0,0],[0.75,0,0],[1,0,0],[0,1,0],[0.25,1,0],[0.5,1,0],[0.75,1,0],[1,1,0],[0,0.25,0],[0,0.5,0],[0,0.75,0],[1,0.25,0],[1,0.5,0],[1,0.75,0]];outlineConnect=0;fontColor=#232F3E;fillColor=#DD344C;strokeColor=#ffffff;dashed=0;verticalLabelPosition=bottom;verticalAlign=top;align=center;html=1;fontSize=12;fontStyle=0;aspect=fixed;shape=mxgraph.aws4.resourceIcon;resIcon=mxgraph.aws4.certificate_manager_3;" vertex="1" parent="1">
          <mxGeometry x="757" y="-650" width="40" height="40" as="geometry" />
        </mxCell>
        <mxCell id="eEzp5Qi8Yp392ZO1BSw_-7" value="" style="shape=image;imageAspect=0;aspect=fixed;verticalLabelPosition=bottom;verticalAlign=top;image=data:image/png,iVBORw0KGgoAAAANSUhEUgAAAMQAAADECAYAAADApo5rAAAABGdBTUEAALGPC/xhBQAAACBjSFJNAAB6JgAAgIQAAPoAAACA6AAAdTAAAOpgAAA6mAAAF3CculE8AAAABmJLR0QA/wD/AP+gvaeTAAAACXBIWXMAAA7DAAAOwwHHb6hkAABpEElEQVR42t29d7Rd13kf+Nvn3vsKHt5Dr0QvBAGCBSxgp8QiirJcIlmyJFt2XORlW+Ma2Z5ZmTWJJrbjJMsry/GsUWbsZGLHdlQiybIsWaJkSaRYxA6SIEACIHrv7wF49d579vxx2tf2OeeCcuLlvRbw7ml7f/379reb2/yH/7t3zoEWeY30Or/rkv8c+S1eLb/ngEhcF39c8Lqohd+z4HX8gwJegUhvOEj4S3CIaNOCfrwRjYOEX94z4WetM5wcAE9wcJo41TxIi8U3iweaJxYPNLzWc00uiUNkgERxqCNTSSMR6hTvU5KK29l/5Ln36g1YH8bB13zFta7Xe/GCt9r18GU40GcBsCX8YRzEQ1/88aH3BfwhWL31rXjg2QPjdU9JFOaRVRK8qwhk1+fEtW7PF1wi+DholnIcYkbjMmRyinj7zSipXAuYEjKKDlECripEKcj3nPi0Xl/886IeT98W8AVgVjgoSXTimsBDrj30c8+uE+AiEyfNAC+UOrvnGY0Ek7zAKaW3Y5V4KkJcWywcBbyS3gWYXtzWChpnQuUz+mh8Eh5InrAbKQ4l7Mjb9vWUmOJArymsUoZ80V5UwOZNpCjwXlquIAOk5fXaKnkgZp7CUAItq5q3guCSQBxebzJXM8QLxycZktyrhD+mIueDfGRwlCm6p+KhvyWVGN5Eww/JE2aYmHQVOJDCPCSlsSE3mgdlhJCGycJByhXx2QYOntVt09fD1wyZNB0FJyQDCDjBaCb5EcEOPSQCtiD7Sk9RYrxLYhCFngG/RQyjKsYnbzPEl4qHUgrD3QCw1NxQdK9x8AYO0utD8I2il1Rqox/GwfSjNp5BGbLuWWoqPKKXfCsuIu99mTzkiGhRlDSqYFrArsW6IvLHthIlWqaJb1xzSw4tUAJepehBT0EskqdsNuAtUSQrZFX885aV9WGemMWHfymrGnbNcahq+prsZNM6pWcuqUbzIBw+cR4LTyFr9IWBrkTGS4KkDHF21bQV+VMgUzwoDKl21SZoVbxW3xkWtMxqVYU3pZ7BYGEsn/jA23UbFFgJ+Sp+hPt5XkheOHyyUJVKYXhvGa4aONQzrF7opM2sws6k0qS0SSLMq/I+DZny0KMkPMniV84jYZF8QPCoVnuCoAQOIiYPAC+/yZDhHXmv3bSEF1BM0+8UNAGBP8eHVBYH4MuviVJ4XkERTjG0+bWJkyKLCD8sz2ZafNv7sTYIOKZSVEQbGZ5cZgxjCy1XDD1Sk9cMpRBpnJgocePrAESlkU4gHpcM8AEGcA3UJtWyUvBEsAi8ATtn0LIqXLIV3cKJM02+x8MjqhQsJcto5kVHGxp+qehWYFSm6NY9YWmZGnov3jFIRHnoy+GLJU+qDJPFg1wpOL09hY8qRqlbj8UTbVx9QXlEOiVYLlBeWlHSGpdtbcmC18GbXv+RtBWhT+4tKnAo7aiWgVn6jjQE3r4tsgjeErKylCwUT2H5ZgZfCTJWCGsaq1LK8Jdjw7uVNBqKgmoX5jmIM6f1SWMm9AqgIZMCvkzLTYiZO8hAU5bWFz8LwDy/BiA6qrQVI7TIORhmQCh+pRfM4hHXzfWFxLMCB0mH2FCK/IKEuWxsgf4Uih6QgBD5iWczhIHFPoHkBaeAkHnP+ExLjCx7aAt9kCeB8IkjQeAS2iPT+sWjgtgyEuB1lI5UV6iot1y31Dj100A4gBAhrnRzFsMBqOH4Ss+kxlW8gQNRE8IUy5JZI8DFyK501T5H0BJbk+SGAIU8OAPKZkTyyBxvJdIkGCpDLs53yTfRHmx4ZTQhB1X1ICtprYYMFSXWbGCQk3GIqwk98u8kk0JaLoCwitJyiWDgOodXMEB1XDUCFhTlIZ95m4Y4AgfjO6YEJCGiwqer4QEk08VbUikkDq6iLm/Vb78dZ+FTGQ41w6PyqTdWfVJJ+HNpvD2ASLnlCmCt+Lt6hJi0S2Km7FqGS5aVlRUxoVJKEKa1D1jVOtkb7rVtz2EywaI8hOjI0UkmtJYX0PT2MBtV4UYBIAmfiFcoSUJZFM3hLU0y1enXiWa8gUO5pyh4ImVIDdwxHhctR/ShBbzl5mx8baUQPscmprqnKiLJGW/9Mb9hsPVqab26w+GtdiDsGz7NQ35fw0SqTrVhuFSE42tRnKBr1B4wVLK9Cj7Gxit1M4A2RU1CllcXUAr6QmQhaHmKOhMAQ4ojrWjQdVe48lBHOzdPDBXDU9TwDLrZkrELy1OQF62cPpstKp/Hnn4N6b2tZEfVqL1Kvwb6RILUeVVhSxuwSNJ7kxKjLrySJ9JTaM9gee+8ejF2VMQduqMdxbCZ5OnX2b0altbKOUuCaSELuD5DKTKhqlJil79TLlSqVKVkTaUgTClViuJ9Rm/6DlMKxsGiFUViK/zgkl3q/fJrPfVa4shBItdUEEu8dz73SZC3NAy3PEVJuCQVXXk7Jha8ox1pHyqdUQ13Loovs1JBgte3UrCuaQM0vVsDhTrhU6hPxNsPeEgmMOaHHAU188BQikqaa7ZWK4WmQg5bTzh40aZReVWyAwb8So68+ZW3aikHIX8eUTRi+CLWCwhR4TkIQjX6GMpKwRnN2OPRHPgUVm+OQcKHyGuEL1KJwu8jZ670DKYqSYsJmrgprJScOm4Jmd0GgvyRNNc48GasRTs8yiBeVwyYmN4vu0fDFAGwWlwVgtfipi8ReMvGenEtXpbhU2TVrbXeCD0ULlpJ9AQvGd4It0fdnGG6LL2z+xSSGNqVW6oXynxYtJc18Ta1FeVWVqFm01bOAbGSHcybekWkqo6rNW0lFBuERrQtZCxdUXe9IVdV2T5Cz5wsnNSaL2WxDiNhjIgLaMGHAmDVTilCFlU0qbQp0gjZVorV4Qt4ixVc4cZN26J4ZLPSxInAF3SqFTjw7JkR56QIFoaXWOwQdSs9thU6BbwzcxfWegqpFN5Weq/rjjMsDB6wOVaV3tuSoYIvTEm8IVcEtig04cNyaznZtAFkyDDGpQiV8h1WfQEtt6ysGd5wz8AESsavZUrhBYOCDBDLO00hKz6n1cVepJWV8AgLR0bUQwpgL+ekAmDPKHXsmuBgKYHM3gi+5FBLz0awScJ0PXhn4cNnV9tzkUyZFDiS14ubKZiR/r6gdCSuOYSUll4xwMBIVcAVLOzWuEZTVy28jQbMJq4Bicrm9DoiLIXMfDFkBqjFLGhePHFG0G2FH/JWiWUNELqEbMrThX9xy2sJqY2DDVPwuqpTXe6yzYYjes9yaWouDq2U1OuqXB+05c2+LKrM1UtRscJ+JPAalGBWSnkW8Z5a1KUZpl25tfBfu2XT4svwyPAUmaLlD2n2SdgDqY4JT/g9ZWXNTmoJDqZhCtCc3fYwb5Mixym893qlncQzmFL2+XNCQdGwJw4seVAMzJGHnrxsVgDxTg6CLbalSmG5PkV36ZZTJL1miLmcExonnnMvYOt5ANIjIFScQQRdhqwVk/OpKoZBIB1te6ayp08tjgi2yslzYRw0MIJ5Oo4ht7khtTyMWqNt0N9qX6+nkDJFTAYxhpJvkZnnl2zwdprMck1WqCE3rVIDR7avNBDKvkegWOZHhxJ8hqcPVlNWtLBZVkpaVUaEUvjDGy9oMSqBJG2qzlwtfa3rsjveHL2w9wvRUbZkZg5rzYqwecAflY9TRAF1M9uyp2JrKyU9i92n0BrMV29ZCIU8kGFlg2gxN1jAVzFQZFopYzRVT+uQ8IdxYN94Y5wCBAeS9XAGESozTTQ8Jfe4gQ8JPJUB4f0olIYoWdGHHT5B8ASVnjrz1pzcFR1tcR3BeJnzoIa5VEzTjLddn2W1SpRCELugqq2N1oS6Umxkh02BW6EoPCIgVoqHZ3qKRMD2e6HYFZ5CXVTBH/ACViXBqKk8ThGGyIbfABVAICoxxlHUO8Ydy1tb12w9ROXwvM+ETHLeRrpy3lCAEKUaTX+UetWAy5IMUqgSiwdfbWmrsKphlRgFDeSt3UiYp2AYcsNkDt4pUCuUmnme4puQKocG6yjNJayyxhx3y/3LKi1DWzkfjUBPnkcFBo7VJ90eFRPGJDWCbSFZxhAjvlWdPEF2/YjDS+95I/uUu1Gv6wMUA6ycvnxuzX2yhMqySmEciCHilXNi8E3rinfYNyU4+AwHwReGQ3Ilx1pychlCluPA6i5wos/5U6EUvOoCfqHoSv2MZEdw6k0KS6QAtXxu4HYsPw2Uq1t5B8Uge/KMFCjb0vLwiY7x2t7GoG45DoYM2pV6+3nQqha3Y6M2VW+gBvNezVF5jmNJP6ms+MK4mk0oGdL1Xt0my0KGqT0xDFUUwkuFTxAykdYaHKdQef8aAmV5D1qJk8gQhDx5KRR+eL2+WYUazJ0LIfNJ7S7dmr6Ot1N7V0EIAbGJVVMiCm/HrWz+GtF6r/CxDRFMeJnp1d4unZhJcfCMmCUqSenLnnBgpaew1pDoZE4xIs9vV2U1s9Y8mgU4xpkE7ANXcl3stECbc+RVD8BloVk2Fue9TslKSDzgXfJd8sfnDFF7CnjAuQorkn9IAQvjld2KnMNAs4WVI/OwfPYcXJgax5FLoxifma4x9cCn1Ti7WdVeQUFrbIrSWkNOa9atWDQP06i8DUsqULAoXLEHvEtrSH4INnj7jIysDo+cKN6U3ApJJnIk8W3Si4ynzmSIz68zrJPb9CQKDqzkfk5GX6IUqVuW95LvPZx3ucDkpPA+P2CD4+BMnOJMyCmDBNgFWh79jRauXbgEP3PjXbh56Ur0N5roeo+TV8bw4slDePH4Eew8ewzj7TY6cYzYxymKmuC5YXAJ/MhBJ+JWoFOQgCq7d4hTekcZD6hQZbFVRGlG6yro69PK6cEu2Tu5UFL3mM9ISJ5z/RXC5ACfEjKsg5mVdynNfW44cqUhQp6jRiyF954fopO3TcbAUrmCcU3to1v7b37T57Cqk4E4V9jJOozGnOCRPOFHUEReJ5eaYm/rZKAaJxlFxslGFMoocpg3MAs/tPFGfGjrbVg4axgRFRp4xLHHTNzFufHLeO7EITx3/AD2XDiD0akJdOIYXeo5HIOWAXVVOMiTjKxTdIgrqTx5yaS5gDlwkhFhRxBe87SjUh4Y9JGnGfUqRwGZye64tf/mN73Go4oZBeSWUuSAetGgkoVqhtRBhjMk60NoHKyjpEJK0XARVs9bgF+9/UFsX7EW/Y0mqor3Seh0/PIoXjh+EN85vA+vnj2OdtxFnmlRCmAphBQwC4cC3tLjyZhCcCLk71TwRfKgnlJrHFwWZpXhZCk1a563HdWRK2VIjSArw4EphOZCxdlehlIEmGQJgLeANxGqslI2Q0yrq19MlSJjjsNIXz9+ZPPN+MjWOzB/cAitqLdjNGLv0Y1jtLvdPKz63vFDePP8KVyemUr7HAGlKPTZpjdQrRSS5hHlkOElRMxfeV6c5IHJkzC9LRwsnBhn5TUp0VV5CSIhKc2dc3Brf/8TnnJDeQoDobCS8EZty2VodJWWB6ySFT4VP+soNXG/Dmg1mrh2wWL8/C334fblazDQ6oMhCj0V7z06PsZ0p4PTVy7hpdOH8fTRg9h/8Qwuz0yhE3t0fRygueUpynGo8hRSCUmLYR5JAQrxxTRErgJ+DqytANa93pTCVmqNl6kQlW4NqO0pgNStWUzqwSrZp1pqz8FIZQqVhr/hIsxq9eH9m2/Gh7begSWzh9FwvR+uVFW89+imCnLq8hhePnUETx87iN3nT2BiZgYdxIjlJKyAkJk8QEW/KJKiVMEDpRgVfbi8SinNvYWATlyzVsqUQhDlavqlhUIEiR9GqLfwSQBbhyG1OtV1rBS5J64HWi3csHg5PnbLfbh56Ur0NVtv2yvUKcm4g0e728Ho1ASePnYAz588jDfOn8LY9CS6cYxuHEN28KRiF2Q16B2yqpG4J3jgKJ29h684MtgKR4LRhXXvKpVE4YV6He2ykNyt+f1/5iXwloBxPMKxoMWgggdVWl8ROgUZEHDTJcR3iDDU14cPbL4FP3XzXVgwazbqFu+TZY8RXHVOv4fSjWOcuDyGF04exneP7sPucycx3p5JB6XCAlVJc0lW1qdIPo6cQ+QiDDQamN3Xj6FmHzqxx1h7EtPdLjpxF3GeqqwIYcs8s8GXOtk06btCnsJSiORWiVIQ+UsVIrtEUIDqaXjgO4NBrEYl3663jp6Z0s2HwpTV6ms2sWnBEnzslvuwfcVaDDZbtQTbA5jutPHcsQPYcfIoti1bha2Ll2O4fxCNKBGot6seWYe842McuzSKz7/xIh47uAfTcRtBgTGuLUPE3knPOm9GDSwcHMLtS1bhjmVrsWH+Qoz0DeYtzXS7OD4+ijfOn8QzJw7jzYunMd3t5IPSPKLijMyzSgLoKmNVKyy3og1SdOq/wthmZFvzr1OFCABrxej54160XDIpkH40gQ3cs645AzgOUeSwYHA2fnjTTfjxG+/AvMEhNGtmkDrdLk6PX8Kndz6Pr+3fhfGZGbQaDSwamo2blqzEvavWY8ui5Zg3MAvNqIFG9PaVw3uP0elJ/MeXnsBXD+wio+F2R1XSPHJ0VJsbIucc5g8O4dG1m/FD67di/sBstBqRqdSx94h9jPF2G6+dPY7P7X0Fey6eQjuOy701uSdhq1aK9L2ADFFjKswfK0oxKjKYhUJYH0hkPMoRrOE5SvsUauwC5YoiXXcg5HNw6G80sWnhYvzS7Q/gtmvWoq/ZrC2wk502njnyFv745e/i0NgFdLpdhmPkIjSjCEuHhnHD4hW4e9V63Lx0Feb0DyTK4a4+tPLe460LZ/CLj30aE+12SUwe9hSyT9FwDqtH5uPj2+7DLUtWodlo1KZF13tcmBzHp998Cd84sgfj7emahokqgeXB6/cxwiE3+xhAjY62qKsx56E7P1kndaaBlQAFgJf3VDRUFULV6Fe4cB/CAZjV14cPbLkF//ydP4SNC5egFfUgAHGMr+7did976m9x+sqlJAsk4PVIUqeXpqfw1sVzePzwXnztrddxdOwimo0Iw/0DiQIG5+eEi3MOA60+/N2h3bg8M01m6lv0JbiTd7zj0xhWjszD/3H3e3DDomvQ7NGTRc5hqNWHbUtWwMceb1w4jU4ca0srDau3+aRxCI+9MC/gKmQoLQW5rLBa07qpAsF0coqcjKZbEJP41CtkPlTBmnzeTeHKgzPB0qfl0w6ND5KvnENfo4FNC5bgF7a/E7ctX4OhVl9vdaXVnZ+8guluV9HAmieINLV6YWoCX9v/Or51+E0sHRrBTUtW4J6V63FD1udwkcqdh4oD0N9sWYjCsDB6ol/eS/SYOzCIX9n2Dqydu6B2+1bpi5r4JxtvwqmJS/i7I3vR9l32PJtdyndjqZ4kGiKul8SWv9h8LV5vDCTrHBx/ak10bAJiIpeoj09GS1E0gM0mnmWTudRkufzaUArGt3QyGggMagKgmALqPZtMFzmHkf5B/JPrbsJP3Hw3Fg8No9HjaDNjUTrHOoG3mGCXwEwmOToyZdkDbd9Fe6aLg+1zODJ2AV/fvxuLZg3hlmWrsX35aty4eAXmDs5C00WV8DmfT7IuBJzxiLyY8sEJAeprtvATW7bj5iUr0YoaV02PrAz39eOjm2/Dvgtnsf/SOT4pk5OpkIOMtWJCIJ3Q6D2d3SwExPGKivqTe+yaCFGMdPEPmRBo8blJrtQMTR+YIssnP0qE5ExZy1MU9eVCRpRAClkGrJqhqWbEegw0+7BxwWJ8fPsDuPWaNRj8Pow2B0vAU2T0TPBxaae0i04c4+ilNo5fGcPX9+/CgsEh3LZsFbYvX4tH1m+p116AEcXMX/KYzPSNXIRNcxfjvRu2YqBZPS+rTnEAFs8awfuuvQn/4eUnMBN3TOPF5EouN7BwSN/IZwMr48sRlZ5C2NO8SE+RgJfllJKbnDKpEjhBcM+myFr+ORz2GMYcwanjBA1zxj0RMguZ/mYLH7nhdvzUtnuwYHAI0dvwCgYmhRJ7ICJTsRn8ZCo2BGmyBS3d2KdjDqP4ypVL+Opbr1cqBI86bB5IgaLvNKMGHl67CbOafd9HmgCNKMLtS1bhmtkjOHjpQs4XNaXf8Aw6GPbEs5VRIZMRn9bntCgFwyePsl5TM/aex5IyHCuaFkoB8LfSd6xYL/MUnigaeScmMEdkEZHkfSEUnOAODtcvXorfuvcHcMs1q2vHxh5JOrUbdzHQ6it/Mf0R+8wF831A6foJM04QSuFSJnY92cm4AlqpFCRK56BKK+qBeQMDuHP5mlLazHS7ePLYPnxx72t4a/Qshvr68cCKDfjw5luxaNaw+Y0DMKd/APcuX5crBOd+wTMt6XYPkUcbRfSRRTxZVbz+DNXC2DKeKMNqh+URAHO1l5cX5lJIufudvta1ZjGuuK8aJDVWCMzmhUvxrx56H25etrK2MnR9jJOXLuL/eu7beOnk0d531/DhM+NMfLxRQc/F3ovP8/9U9c45XDN7LuYNhEfjOz7GYwd34z+8/AR2nzuJqXYb5yfG8TcHduEPXvg2Lk5NmG0DiZfYunC5ACoMqwTVeuDZA+N1T2UoQMvAbXZilii5kWNKwbZDzKgq2ihk2+aFRNBo30ZVI8PX62YgFkL2sdvvx7r5i9BsVHcUvfcYn5nGt/bvxie+9ll8YfdLmJiZqvGdgTi79kLui2sLT5/hULfkFTlxbTGC7/vkAKwcnotGFDYWFycn8Jk3XsTo5AS6Pka2hc1Ut41Xzh7DYwffQLtrHnOCCA5r58xXG77BCxzT7TlYNJOvgTaEycJR8EDSu+CBF7e1ghZHKGQy6nkfIlOKiMToPGsg0huk4aIDRK4Bvg6adPKSl5wKNWJCrUil0qDCD+cd7l61Hs0aC3ja3S6Ojl3An+14Gl/btwtT3Tb6G80KW10IPO/CpPAmwJOd0p0ZPrFIM/0mr76XXn/aSU2q4D2GnN7pD9opnds/GEw5e3gcGjuPMxNXRDSRuMGZbhfPnzqCH9l4IwBtdJxzmNM/SMSEh7RSjmiyxkzCkr5rjlP6gPcxUnpTnqQywpafSpmRKVkCQxM+BkqmOoucgK5UMlT0Dwp9sDhfxLgsncYQTrAtei06Jh9OmVFW2t0unj6yD3/0vW/hrQtnERNL1WsWSmY6Iug+BUfLpzjoqL9OSGgyhSdtyhMbQHko6YFOHHMrTV+PgXa3UwpSVDFdXhlXq3MYSAzwbqs31mkbnXEmJoacqXGK5F4zaYwrBeto5wu2bS2X2Serz0261+Cps4IY7J2s45p3tCXt6g/Wee9x5sol/Pkr38NfvfkyLk9PJ54wTfNJZ2zWwf+DtACxleIgnTxAymuh6LVwgBHzso58wQMr+eGBZJQ7gKlzDqvnzMdw/wCmO1fS+l0eoTUihxsWLgsqlfcel6enmJzJDCDncUFP74xME0qymjZ3RP0FD4okoOSdoRTQu5kULxj7rlpweOMmB1H2IezrPJwLNqi4UOu1yU4bv/P4l/GZnc9jdGqywCuNX+t6B9VPMpIAxQZ6LJg16zI7loFSsNDY59bcH1dce4+jl0dLt8pZOGsI/2T9jclofj7XCGhFDaybuwA/uGFrcDAvhsfhyxdrENEWJL0Vv8QhsOu4QJ+Tw+rXSVLpPkWzaDM98Ut4CiDQp8ggygZUhOvmyk08A31HhB45Uln8l3uKbItBZ3idKh54nLlyOZl6kXo25pRrd2wLJjhkXlPHs2wEXsY2asRIhog1QPBiXAgyhE3hJO94xDhy6QIuTk5g6ewRs+q+qIkPXLcNfc0mvrr/dZyfHEfTRbhlyUr85NY7sGz2nKBX7sYer505BjouwAcoXdhzyGhGylX+jpAZtVcPCappBGL043j2n0tSU+aHvY+ZUki3ruLg3FWn9zLTl8X9TAkABhnsjbhUrOeT8ClSakCwK5MjLzIbFgNKK6C4i7EXGc+m78ZI1+GQfh1JNXCGVOCgvIka7RQhbPpONkLsPXB+Yhw7z57AkqHh4MzboVY/PnTdrfjhDTdidGoC/Y0W5gwkM3bLIBzvzODZU4c1TvkApTEEZyRsWPgk79EQ0HMq5hMXS+TK53znSivhi3z+dogbXodPvlCMAngHXksdy0vDJy/+6XrUprcQcARb4cFGlh7sqS/rK66DN73+o8jZa68a5obFVvvZnXa3i8cO7MZMZefYYVarD8tmz8GCwVmVM4O7PsbrZ47jrdGzmi9e01zCJu+Ubm9fLqbqCyukClzk98jerhT4OA+hshKnyyZpfXIPUD14p6Q3R5nvGK11MjTwUuzN2psQJfXVkmqTUAUORTxLFZnvhZv2Kbx9Gk4uLD2gENqaX/KYKRiJvzs+xo7TR/GdI/sqlcIhUYw6azhGpybxuT0vY6bTUQApubKYIpFRfQgvHzGaSzwtofdmxWA8yGimO9WMllwp1BwQk6dyG/hAZ1AhWMBnwkyAZ+dov52SKkldX2ayViitrcSEWAGG9wIzv9abEzO+EOsz2WnjP7/6FPZcOINuHNdqrqxMttv4/J4dePPi6cJQVVCzcoPo7B1jQM9gBBs34egSbRECyW2RJ3IqUufecGkgc23MLIWp5baQcQ22hCrw3AA+2D7sz4o+3tUqUX3vwpSCwau0oaoq1Vz9M/H0mRWx9zh+aQx/+MK3cGTsPDr+6pTCA5jqtvG3B17Hl/a/hul2h52O6pnlhS3wBrRWOz70llQKSQxXUZeHqb6RdN1Be0mUIgmfOIKlzpyGFgw6qq2m+WTA02IdLF+3mMd7VX5ECEtipuxahkvSU8RGReTttw1/vYMVE77tPncav/P032LP+dOIe/QUHsDl6Sn8xevP409eewZXpqeLNkrOL7O9gHy9ZNt6EWIXRCbhE/EKXkq7ZZjkQx8ahxBxn7dET3W2tafQp+iESFwFLKWvpxe1lOLqj8aSEFlIhO4pYhgnGdlvhwHp0dJ6dSe59jH2XjiL33nqq/jCnh0Ym56s9BYewFSnjdfPncDvP/sNfPaNlzAxM2O3Wxd+aJmxwr06FCfoGrUHDJVsDz4ZqQayVWo+T5eqsxwQp5MUyvBNvucpTjEcTza+CmRiU6bRdKbPX/L0Xu0cvstdt5xjk2wW1sV0p212IjtxjE435sQWI8KNKEoX6uv1zMlUA6QdWWMr/lrQU4Z7kSb3KZ3kOE6AB2mzHR/jyKVRfOrlJ/GV/a/jxzbfinev3WLuQuK9x8WpCXzq5Sfx7KmDuDQ9ja6Pkz4lQ8Pn+WafUb1gWA4/XSefp8QrV0QGFhQRnliDVGr+mTX+Rd7PZ8QV88jB87N5gy7JPqF88K6YfMbzx1YGnhMgQRBeA5+0WWgPQ6hu/J1ZY8GAdreLz+58Dt89tFeLp3Pw3mP/+dPJugVDyCLncNOSa/DBrbcXKcq8ouT7U1fG8H+/+DimO52cuPm4Sp1xFPm/ECr9QTpiUjZ3yAGxjzHVaeOti+fw4okjeHjNdWgG8iyjU5N46vhbuJx5BUcW2xDDlgoFUYqUv8y48jMrcpykojs63mWMUxhTVVLzUHIoCpGrfAJgIWdNiYwFbB07xuc/iY8IcMVPdoSfPmvD6BSJ4SzGg/ISnqLR9TFePnkU0alj6pkjI/Q+uaEY4uCwdPZcPLR2M/qNpZmx99h/4Sz+n5eeBNCBtko1KVyh+JWnMXno1ZCu6PTGNUKmbuxhww/Nk+xor4g8LZl1auKgvJ1e5mx5Pw15MUicsDGMQ0QDqRqd9RSuOPcWWYmM4WbVj6kcB5Adax4P+8CrvZY89CDz4LtxXCQMxL8CB9npI0LgUOyLavyDB49fER6nCMMs7qiOoxGTq09KTuLsiYI+j5BseDhwZd3H8qasvilvxhl15uImCMemdBjVRzAqk0rirS9FyYSH08ybSuBJEzwUKH6YpDQ63vWYmU69VskCSXvxTq4AWjELmvQmThYZ6+d5PGe4IXT2kcG8Ck3BejiYLPWB9yhy9LhaxgP7eN3K5IHROffqOQ00Q59KpfDJNHCWMvSCWMxgS4FJPQVpRCmGREgKPNcEBbyc1mHNkq0qmVCYTUmc1McWdCWeLAyFcV2zD8S+0pBAyUuFJ5ag14bBxoFnzwKhBhETCp8z6rUUuxSWXKbsWbHcXXjTTmfXUVCTQJ54cU/Bqm1cXKbFRCmK+pwQWil0pKaAWy4rfAq111VLK0WZksIT5HuPAlXHylqfMoESlrZUKTyMcYrCx9QtrFsocIi9SCtLwyrljIyohxTAS2/tebgXSus7dk0UxVIC6k28CJmYAgRiM14bgaVq1NPUJCr0YeEOItNLMWMk+sgrBug6rPCvfrghTbIczKtRQ+AqUwoj/LDeq0Hf4DvmiwUOsk9RPHGG3TSYWuXtqgyJ9+UUFXIofzUL4FPn5Yquoid7DrniYU5WR9JByRT1uCIly6pA9qGHXPWVPChSZ+RFFPfK9/DhpZgUKAAgaQxr606Z59dLIWs6CK+q7qlEUYSmixI8KLzwLCVX69Qccc9FDo2axwHwX/bag3zqO5MrT7JPrsg+Kfby7FPCE44jPzLYyACSmnJyGVlOjQPbZKDgrtwekC9oQT6wRpXCi2o4JQlCwXyyFsgCeMkGXnVvJcHJ3gggV0XjM44D20eybrsEXrn1Z1npixp436ZtuDg5ngtDqNSZoaqPzgLWzl1YcYwYCXlyIUsuys+iJoIHwju2jym4nJHRNJ6cl/XKwTu6JgfGOIS81tU1rZE89T7TC2dUVjDJGtGWOxvYA0d0IAewh7FTwqbNNaMIrYrdNhyAgWYTTRdhxsdaV1mbGXg6p88sVIqDcw6tqIG+Gjt+SC5UyDUrrUYDP7Lp5l773z0V51DjXD0jxAnk/YsReY46sdOixsIzSMOX0TuBk0cb9D3LfmtxtQeJMxFr5jeI29DhkyO35ea+KVC01aw/Edq4gIHGx9jl1iNMYAn2rUYDty5fjY/ecncpC/ubLfzW/e/Fn738JJ44tA8T7Wk4Qc1iIwAnuICgkkQAhvsG8fD6zfiJm++qVMyC9lcXOL2dzZq/X8Wx+FvjkOsHYV7s+BY9TCnyXSToiDYK42oZJqPBPLpI73kSxoNEME4KE9tfM3mn6EOUzvEw3Bp5LflZjHCHSGZtm2lpsBjTz11h5BxajSa2LF6Gj95yN+5dey3m9s8qZWIjinDjshX4nXe9HztOHsFnXnsWzx05iMlO25jOzsMnakcyBkUuwkj/AB5ctwk/ev1tuG7RMvQ3WxU7BlrJUrkZ9D/8kutDbkR0P0/FGJ4sp+W3rbehLow+naslQ1CVBKMm8kP1IdS8KlF1ITNaSfL1qrmGZyFKlL8jlcIXZoWAwQf2Gy7CYKuFm5etxIdvvgt3rtqAkYEBNGoefNKIIgwPDOKe1RuxbflqvHLyCD772rN44dghXJmZyecp5WSjiu2T+TrNRoTZfQN459rr8MEbb8emBUvQ32xW7kcEJIeu5J1qkRjoaZOB/4klOxHVFCohWcqwInSUAPEUEZU10a/zgJoQaOz8LjubPH9CwnriyQqzl2aZdB8iyy7xHboTOS9aUh3vpNaiow2KNO9FVHqKFIFGo4FZrT7cvHwlPnLzXbhz1fr0gMOrCx8aUXKaz92rN+CW5avx+ulj+Myrz+LZowdweWY63awraTvzdq1GAwsGh/DOtZvwgRu2Y+28hRio9AhFiX2ME5cu5nOFpFUSWcB/kCX2HievjMLHBAcihFzeCqUAuMyo8AmEGCR8koYJ+Tdg4VRSP+lTgGSfkpfERFN7LlSuxKDb4Qd63WXJwkD+wHyvKnyi2ZNGlBykfss1a/DjN9+JO9dswOy+gbd14g0tDRdhqK8f21esw43LVmLH8cP4wq4X8eShtzDZnkHHx+iLGhjs68ej66/HB264DdcuWoZWFPV8VtyVmWl8fd+u5Fw6ESOHqfMPp3gAV9rT+LsDb6Idx2AxQ3UMoiorlEJiz2MRM1lp3VP9DBljQcm1dySbKHBo2tnfrDHLc2TamwJPXR/JFlErm3ybZp9II3KcwiE5Mve2a1bjZ29/B+5fvxmtv8fOpHMOg80+3L16I+5cvRGvnjiM/7rjabx68igeWLsZH73lLqyau7BWjl4W7z0m2jP476+/gG/s34VurgwiEZFzrbq+/9HFA5hoz+CLb7yMbx/ZW/S5pDen+/nKkFvIUDFOQaKNtE4HgKan8n4pCodidrRFGlydpW0uSdBZTdKpJhQoaStINReyCdzt+XRCixNxtwMwq68fWxYtx0/edg/uXrMxOWqqR2Xw3qMdJxuSNRuNnjxKBODGpSvxfz78flycuIJFs0d6Co2yEnuPqXYbu84cx2d2Po+njryVH0rIO6FVfrUonTjGiycOpcs1A4pB0+KCtt66dvSexTmPCxNX8NzJI3j59JG8n0XHioLwB9LkjE7QyzXtLrZupTL7ZH9mtiFfY+shilgw5L58odHI3hOUYWMS3HMUCBXewgFYMjwHn7j/UTxy7Q0Y6h/o+Yzn2HvMdDs4cvE8vrzrZVyamsL7brgVmxYv60moG1GSQRru6+85NOrGMSbaM9h99gQ+t/N5PHP0QBJ+ZWuWSXbGpX205Hb1LrUz3TY+9cJ3sO/C2dRKp6Jv9MfNw8izl0PvBe55AHHsi8VRLPTOUp6pVwBY6CFzJfk90acAsr2QHBelbJoH9RSBbFOW/JB48hHt9L8MKNLxofrbzNul7tA7giByJbAH7wqlKNK6vFMtaMXKrFYfPnHfo/iRrbf2MMCVlNh7tLsdHLhwFn/9+sv4mzd34PzEOGIAX9v3Gh5cvwUfvPF2bFm8HAOtVq2MUEhYQqUbxxhvT+OVk0fwuZ3P44XjhzHZbhcWNbQ0khCmaodZj2QJ6lS7TTxEmr/LPy2kv6iNC5GruA7hLje5lkeucaEqtutP3iThNiOB1WkWITgAn2egqrNNuWKUnXEnmyVdBkCGTMFeTCCdxtNCpeMUOlMcI0KEFSPz8fCmrb0rQxzj+NhF/PedL+Czrz6HC1MTyQ4SaRMXJifwV7tfwrf378ZD6zbjp267F9cuWtZzGBYqHkCn28Grp4/hv736PXw37ZBb67Zlp886W61eoQFQmr/zZN4QMUx211TygKfJM3j5vCABsUwQlcIKJUMWIVlHuyoc0wMTkIofGqswb4hxhSa9E/vs5HdzWAo85rJiMI9inpCHmiyngPdYv3AhBmseBOh94r6PjV7AF3a+iC/uehEXJscx04kh14QDyZLHi1OT+Os9r+DbB9/EIxuuxwdv3o7NC5eh1Wj2HBYBiVea7rbxyvEj+Nzrz+PJw29hJj2nzhM4g+uDcyvqSuXElAN4EYpIpWBsSPgnQ1ghAGlIwJTCGVNruGcowiWXX8tTZsU7VGYMw8r27mX21bORPTOx5VCfjhk+RooW+cHtSHbY5iMGPD+bE5F1CQoFsBTQE6UIHYDX12xWIuJTITx68SK+uPMFfGPvThy/Mop2N+ZTtlXHNcGz3eniQnccX9z9Er5z8E08sO46fOimO7F+/iIMtPpq9TG6Pk46y6dP4NM7v4dnjxzElZmpvI/gqqyURkrt4l3JxfSf1e8oTkbVvocrhT5Xmwp1EBzL2dCUEplGAS88jFJiQJ2jncu9MrFFn4KdcokCXm8ZXw6vOXFThVPiSC1mcQAjG2JlDqRSeFKVY0pREMzYeiRQut7j4Pkz+Pxrz+Nvdu/A2YkryQAaobJVC4Uv6/jNdLs4c+USvvD6S3hs3y48sO46fPimO3HD0hVolZxPN9mewUvHD+FzO5/Hc0cP4kp7Ot3gi2bQKrrHpgUjs3zrFCKpKp0JIPaOpDNRNOgAO9kh+3ncU1SHfyLiCCpN6imEd9I4OKgjj0E9hSMDd2ARhxR41ecIRPUS7KbsBtjj8iSbEOpTyHwyUwLjIPYMoRLrGHuPo6Pn8NOf/WOcujyWTIGoGrI3d2Eo4AWAdtzFxclxfGn3Dnz34F78wXt/DPesvja4L9Nf7XoJ//6pb2CiPc3WuKidJCoEyN63qmBmrcK8X0ppUmGiFAGGq2SHscOKCtErlEKGS6lMOJev1kjxJmE4acgaq7TO15DZp+BuHqqjLfpJ1vID4umaNWwbJy43Iprsnmi01QOR6bOK9qY7bYxOTpD0pbVVibSzUkksUB1i73FlZhqXp6fLMMbY5ASZDFhYXbO/WCFQ9tT3GnRHYpSsnJTkSXZsgB1+BLI7sJCxcdCK7ZNFRojQ32hgsK8PcwYGEQG4PDOFKzMzmOnGiCHX2xOB92Bp/GImB4WXfhvuyVZc6lCJ4NQsrCrv9MVpOBIxz0ElwbJShlKILAZNg9Sxi97Ttbo2g7J66cHx9HATm3Q9WOX07WKCWs3MTQaLnHcjcagNStEvkqGGoi9Iv4J4bwm2SZUsJi9V1ITCDRdhuNWP6xddgwfXXotN85di6eyRfCyp6z3OT1zBngun8b3jB/HSmcMYnZhCx8f69CgNWEFz2VclfQodKNjZs8pZsnkfgsT7ud6kreTLfYTRtcKnhOlSKQq+BU+WryEI1vFekJ1SrquAiEUzoEloi9rSmPZp88GknGZa8XOhkvF2jZi8qn2V7Mj6SanEMyFzepZpaE2LxiGNwcVkuoTHyUcDzRZuXboKH73xDmxasAQDjWQQVCYpZrf6sGJkHt6xaiOOXhrFf3/jJTxx9C1cmZnK4UnayIxrAW9kKEUuQ+RMZDrNI9RXtZYDgzwHWB/C55UxJiilCFilwDWzQCy06FUpLCGR8aBAkHbks9tEkuoaZk/+VziQ5bN5p5R4Bpk8MGPc2nlXT37LWabG+9aSMtmWZI2a/2804D1m9w/gQ5tvxYeuvx0j/eUTL51zaDqHZhRhw7yF+I3tD+GmJdfgT159BmcmrhCe6BIHRIvdTr1FqK/qrDoIXShPIms7C0r2PIQyCQ7rc/Yc9FrdZi/UKrEJL79nbXnDYSNt99R88TI7tIXoit5ES6NobRFTrzhOX6Mhb/Ck2CLG5fB6ZEGPgF9UbeE0u68fv3z7A/jpm+7C3IHBnuZ7Oecw2Grh3eu34H+9810YHhgQCku3si8Ai0F4z/744gV2j+LgBU5aAbMtbqL8Bf7UyHx484w3kzfiQSEzXr/fmz7YxVvXestG631LYK0GPP0ivYitCiu+vmr8cuJDhE9lSs0fxApx014FaJTc6G828YHNt+C9669Hf7N11Sg1XQPblq7Er267H3P6Bmz9DgLmTVEq3wLRkHHDEBXrNQp7oeEgDIgNafYA2TxLWmPuGfR1dUnq5icZWbsDKgdAf/rMJsqzyOr3IZT3ozxgsiq9o+EFrmI6d0Y/6Veza7rPU25MhTeyztH2xrW16DUCsG3JCnx46+1vSxmyMtBo4eE1m/HutVuSM7CFolveUO0lCyFXIPz2/J4X1xaBI/GFSk9pycrcFwVeNlJHKTzFqbzUzEgpz+ahrgW6PXgowxkzpeBKIIUsAS/MoFqtG6EEfSAzk5z+vqTigH0QQjXY7MNHtm6vXMfeS+lvNvHBzduwaGi2gomDwMOn/MLTPzJ0MlC3DCm5F1We/xXoCgDUi4cZq8beeg3b2ad813HLU5hK4O0+hcmBOnB4IfAB6lvxrLJcAddtYc9/WuGPt59z4qS0I/CWhCPZa845bF64BFsXLv++rVzMyqKhEdx7zTo0oqqjnTl949A76QbLuZJIb1JC7iZtqkieeDXwQnJ8+ppxJctsUIY5NaLspTnroVg7BEZqsE4NL0EerlG3OCoZnmewsh80GxLJNeUc9ZyGdVOuQ339+NyHP35VtPofWWJ4HLhwDn++81l87/gBtLtdbFuyEj9+w3ZsW7IyuBa+6SLcv+pafOWtXejEM0QJC/qyBKIvMq45VdnKumyXQMfXaNPR04wRIgUb5RfWlizisrSjbX9l1Fnmo0OfVb9jnZCqwhvlKSyceHFwWDVvIZYOj5BDzGVIKIgsWrc2I/7HWA5cOIfffeqr+NahPRibmsJEewbPnTyEf/301/HiycNBTxg5h9Vz5mO4vx89CBN1BuFvYv0sFPEAKDk0zludK7lDN2mTPMjic9afk51So54SUFTsZR3aEgcazO8qK13ddiOK8Mi1N+A/vf9n8bO33ocVc+ahn0wdN8Mig9jBjvY/IkX589eexb4LZzHT7eSS0+52cfLKGP7i9ecwXXJg/FCrD8uGhouzDkGTHwXhPLv2pCNsMVP02WSfLr3H+hDscxnPeoANYFmeJO2Z5ppqIcBiZlJ5XWGgnXEpRIZSxCJG52lujUMVGK1GA+sWLMKv3fsu/OkHP4afu+1+rJ4zH/2NBhyTc8+sVmx6DW8ryj+C8syx/Wh3O8oTdOMYu8+dwtjUZNBLODjM6R8C0YeMOmJcwivPXJzElL4jeRJTxSindxQCsDgbwQ6ndHQQNreFFa3ocFYUH/pV43w0a/AuK1OddiUkLt01cNXcBfi1e96F//f9/xQ/efNdGM62xwkqOvdU3njnbY9T/AMpbeIBpFzFsSf7XtmlrE+lJLA0XDU+ILGVPE0qh9d70oeQDxUA0tfoFGfWboX3YunOeqIgXZ+oDzA9haSeGiFGwqSdJ44kU8trliiKsGbeIvzqvY/gsz/+S/jYrfdh+cgcNPPNEQoTxT0nxeEfhxLQsm3JKtZxzjuqzmH13PmYNzgrmKHy8Lg0PQk7I0ijDfBrUgM/s8+zgMI8NcIIWUsXGNdJB1odlEIZmU20vqhf1GeW5+JFnXln1NmJu/jmW7vx8rGD6bG59UrkHAZbfVi/YDF+5Z6H8Sfv+1n81LZ7sGx4brI8tRZO/3jCJQD4iZvuwNKhEbaPVeQc5vYP4kNbbsVAyWDedLeD0+NjuczVzbmU54KM0FiOU4hfjcF7b/kk/UhORksuHb0o3iM/2AQ1+k4WE7JDPbIvHK5bshzv3nQjmsaKNQ/g/MQVfPqVZ4k7dqRNCWuiNXInBi9wkK55oj2DZ4/sx8JZs7F0ZA5ajQacq7cVjnMOzaiB+bOGsH3lOjy8fgtmtVo4cXkUU+2ZXCnZcQKUVOn1L9/5UGk7k+02ZrodtLtd+198tf9itOOO+Gu/G/sYzSi8snDJ0AjWzVuEs5OXcXl6Gs2ogfXzF+JjN9+HB9del4xGG8V7j70XzuCv976GmW6XyRGXs0SYHBcAKnLIE6yMeUJmvORB8UHT2spDL0Chc/czBvOp12yRTjqOkS9Uye+lAPsUbOdqpVRZ2pi1mc4w5RRR4xRSweVyw24c49jYBfxvj30et7y6Ej93xztwz5pNGGzVn57gnEN/s4nV8xfil+95F9635Vb83uNfxpOH9uWj+mwhPUOuXPUm2238i2/9FY6MnkMceyYIQi4YXuk6YMF58dPJeoQxzGp0DjcsWoFfu/NBDLbsTSEaUYTty9fgpiUrMTaVLOqaPzircnf0rvd44cQhTHZmOHXoQp4sVCJrXdj0/XyrpOQZGxfKXqNT3QMbFzSTdqu27TBumUvnyFvhpXXi/fIy0Gxh3sAQptoz6RJSDkmuKGXteZ/iz/OudCcJ74GZTgcvnDiMN776Ody+YjU+fNOduGP1esxq9dcenXUAWi7C7P4BjE5OkIAxXbQDkEVX9ZILsY9x+OI57Dl/Jt00ufDAdOVXcZ1eqcFJYSkB03PTEpF7p65cxg9uugHXL1oe7AA75zDQbKJ/aBie0rykXJqawHeO7OEHw1P2qTsGi60vCuEA0Ybitti4wHt6yebZ6PODrdmBuqMtQzifC2PC2AJ0kY01S+QcVs5biD//6C/h5+94AMtG5iWhVeYmVMeapltjOyUrPuKJAY9ut4uxqQk8fmAPfu3L/w2/9IU/xWN7XsOlqcl8S/iq0vUxnjz4Jt48ezqx6IJlxXl39TsQsY/RjeP0gPnkX9cXv+l1fj9OfnfFveS+T/7R+mJ+HXuPTuzRSa8vTU3iL197HuPt6Up4nbFQyCqdOMaX976GI2MXc5ljSQeafmVkJNPEzZRs0emkcqf6GGSahwPQGLhn2ycBanPAXWvVlofEQpEXeDUuifzye1kfwjlsXrIc777uJrMPASRKMX9wCHesXo+HN16PwWYfzo1fwWQ7PdeBmI/c5bN73HOYTBIbc8ElROzEXZy4NIrHD+7BjhOHMNDqw/zBIfRVnAsxOjGOf/fEV3H88mhBf2G5mdVzDr98V7gP0e528aXdL+PcxDg8fDVPAjjB4IH4Wdyj18STnb5yCfMGh7Bp4ZLaOyGW4fXiqcP4kx1PYWx6EkAVDlb/1epnsNcBJCvtCpobOKYPc4XgdZYTvJL4JQyhMDvnsH7BYrxny7bSbWCcc2g2Gpg/azbuXrsRD264HkOtPhwdPY+ZbgfSbustGz1jbN2TOrNltTPdDo5duohvpdmoWa0+LJ49B81GpITCw+Pre17D53e9hJluB1RbRbTOyPzLdz0cxL/d7eJLu17G+cnxov+jeGAZJpns0Dywrgn6Ct6ZuIM3zp3C6rnzsXT2nGBHuaq0u128ee4Ufu/pr+HU+KU0wtbwEwhzoCwFqIWD4wqh7L93aPTdffMnzT0/eb0mE6quVbYJmSIWk6wiRPjRm7YHO2qy/shFmDdrCHet3oD3bLoJ/Y0+HDh/GtOdDgt/nFPil1/kntawQDo5UfQxOj7GiUuj+Ob+N/Dy0QOYOziE5XPmoumKcyMm2zP45De/hBOXxyzOMlio1apUiN1cIerzwM4AMva6ciXIrrP+yVS7jWeOHcD8gVlYN29RaebJKp04xosnD+N3n/oa96IWDtILEKBMxRb3ite1EbIyfo3+e7Z90gUeVilEPeC1lcq7sg6Y7MxgzbyFuHbRsp5OBnLOYXhgELetWosHN2zB7GY/jl26iOlO21w8nrdqJQtKvZ+2vLH3OD1+Cd89tBc7jiah1KLZI4AHvrl3J76w+2XMdLua+IrMhdf6lQqF+KvdL6UhU488kThUCJCEWV5nKc12t4NXTh/F+fFxrJo7D4N9/XBpGGyVOO2zXJwcx+d2vYg/2fFU6hl8DSW24TXTrwIfKQYejice2PtIFELGsxwOw9JS+A3gLdctEcqUotPt4rWTR7Fg1hBWzl2AZqORb3JVVbIxgAVDw9ie9jH6m02cHBvFdNxJxgB4Hu9txd/0XoxkysexSxfxnf1v4JXjR9CJO/jLV76Hk5fH8tQgJ2HYlVcrRNqH8PVwsAwVg6Ak/lZ9DEMpvEt2JN97/gy+e3gvTl4exUCzD/2NJiLn8gRAJ44xPjODvRdO4av7duJTLz6Ox4/sxaXpqQrPUMEDUynInRKl4H0KET6N/ObPZEn5IuXUax/CuqeskmRI8itKgRrq78PWJSvx03fcj3vWXYd5s2b17Iq995jpdHDq0ig+++pz+NLrL+H4pQvk5BuKg/ZGUZm3CwiMI9+2mk10ul10va9WAkHmvZ/4N0G8xmem8VOf+xO8ee40YsRFDVcRwlYLWSAcCXi7jH+NKEJfs4WRvn5cMzIH8wZmAw64NDOJk5fHMDo1heluB11f7MerQvVeEzglSlFOb/4+HYJlu38DOk8eLCLvX7rHUD7yQcIlOngHjyvT03ju2H7sOHUYd6xYh5+/+0G8c+P1PXXanHPob7WwasEi/MY734P71l2HT3z5L3F07Hyt79lCI2P8jO11m/6XZc+63iNut3OamLu35FUW9VSRmX5d7z3KIuusBLmVJh07sq7zT1Makwf5n2ROWGdmGhMz0zgzfhn5Sh7nggpQCS+SuvlW/OJ8CtIPU+MOqv4Mh+CHhezD01myxqACS9fLhfom/8DWU5hTmPhNH3tMt9t45vA+fPwLf4qf+Yv/iL/d/QrGpibMBUCh4gC0ogZuWbEav37/u80MlrWeQqdkjVm9VQupKE6SSGqcpoKG5eTNx3kKnOqM+pescRF4m/N9xCQjPqEuKcmWlck4hrUkWRFEjHdVkVfJlUlGuiVP0YhjFft8KCK71zTqoSekMhJVRfbmiDfk1BGxbabLiJi26ZMsxOWpKTx+8E08d+wgbr1mNX7ytvtwz7prezqWt7/ZwjvXb8HcwSGcHb9cOXoudwdkAi066Hw3a+E50ntkHBza6nJ/UV3SnRUJDpaHkZujFWdTkDfJbJHsaCwLfsA+c9oio73NJwdSb8WfvEBhyxS93ibRnIJsiTDBgdLcFw0XOBCwm7nVchywBMliy8aMEjQrQxdbyO0Bq46S0odqc4bBAZ1ujMvdSTx1cC9ePHYIt16zBj9x+z24Z80mjAwMotmIKpV0Vl8fFg3OxvnxK+jCq7lPPj9MkB8uD5BtMyWTSLjkyLUWT+mms3v6bISqknllsymJk4SCKgC9md0hPNA40W0zrTiyYGbmKZKww3HFZzbBOEZFVF33uF3LCGkuQCuJeJDtmt40g2VJPYJ3wYDe4kF2ik5ah5cjj6DbZvr8QTeOMT4zhacO7cHzR/fj+qUr8DO334/7N2zG3MGh0kE9AMngmXCtOszU52Kqs7RpXkL0IbLNdVn9VNFFtosrRb1SsCM1OvKgQhbzJ/TP+ZDCoydlajby+oT1RaEkgLCynJlElArPwI7XJRVUHayYhUrJJ6RjYyixPJidBkvcm3IcYp/vuuHBd1cusGOb5VrYCgZwwoowS+leSmzniIBqt5vJVgyPqU4bLx07iJ0nj+H2lWvxT2+/Dz+09dZ60hQb7TMvEJvZJw5/wErCESV25qcQoUat+Y+yErOzXwQNSRvcW/M6ZKPkGEeyO4rVLeWeIsEzqU54G8v7GXhqVNJdu9GjXFEupB1vIBA7WIwgNTRZjOjFXPIUYn5SqSOzleXh7GLwK9Xq2pv75u0lPyKDuBl8M902njuyHzuOH65UCJ8LB1Xi1N4TAXGAucUNwPsV6rgCJQdkgrmMcbgLIZ6ivDSiCFHk4HyUC0zxWXERmmUA8DDWpdNS4tjnAsQFJkOFhz7erpoxUB0ESb8WAi8FlMlf9orRN83lisArT0f16XMa7umeGz9H2zz6k30kEVBUlt8a2uu1UjANlvPeU2LGQilknqATx+jEM6gunv+mrrugVfGWaR7BFZ2ShCiBTBZIp2J3hMuh72s08MEbbsOFdGDOojsLCYISm77jkjD09JXLePHEIRy/PJqsd6YhbCBG5+FSodRZvbZSAGor+3wfJU+rLuQBRj+0aKS4J0Mqp3onihG62+pzHJq8XgJ8+jKlLd2nXwEPfi+oRFTqQq6QMCBOryNJh5yK9YsI4/kFMU2kJ0Nw92QAx5NPKMH50VKhQ2akVaoqrUYTP7r1dsh5TG+3xLHHicuj+KNn/w5PHtqHyW4bliWwOto5H4JxiTwdVVoR3pTMyUkeBYL2/KUyJbCO8ipe9+wyygJTtYuBRDC9Vexj6sWbxTtpjawatVYWReaEfJSHyQoW8aAn0fDF3xw2Ba8Ezl5PoatmSOYGgtYnceRwaYyt0ogiNKPG9/VfX7OJ1fMW4l8++MN498ataLoolQUNuFcwG2QuxILQTPOi6O8YMiLW5eg2vKqPbwCWfBfc1rOC5mJfJhPywLXRjvkNQdD7gNMQQsWQTX6w8xgIsrXH6zxXAhsHQ0lEsfaShXpX4iAHw4Rx+P4a/p6KAzDSN4hfufMhvHv99ehzjYIWAkgLR7VxGEc8pZneXa8UZbXhnHxcoSiS1VmfIsMhR01vhhZJrlj7kBWoJRdsVw1LKQRJvFAKX4GwFqCkNr5tIZ0+V11s3dZKIvfsyVfekXesrfgtK6Qx0AzoYQD+760457B4aBifuPdRPLJ+S57GthSWG1jbyISjDWHM6A+lf5RDdTeElsWHfwauI+5xCiZ5iTDRKh0+CYQCQs4vtb2x9nniwOsYpw6Z8ohJ4KTCvQAOnmCblUpPYbhyQsESy/s/pzjnsHD2MH7j3kfwgxtvwGCjxQ0Twcdkh2FY5S6Nsfowq93r+oBSmbF2TffSkObhk+YJN0zFo4giIIs3fjlxyz6Ag39Tq1h9DAjgWZscoYrKS5/UgbdO+GS6cuh+Uk+g/w8sEYDFs+fgt+9/Dx7dcAMGmy0jCrbiVClDPnBPhk+0E10d0ooK00ttmLSDsiq1GUEONjUqEFa0MJrcc1ghlGVlTY02dwTk1xYy8uSe0iJClMJVG0osXDUjjQidAOOMCu81Q3wg/g7iaKCQ0ur78a+sOADD/YP47fvfg/ds2JqET8Lyusgl6SXniqxgRjdPa7KVIpEZLkPMMDHdECGswXPrdCbrHD/Ls0n5IMfyevD9gTysKQd6RLtqmIa/Y448GvNW2GhGYJwiG0mvVXzFMxfCJqVLnslLlKJ8RNvr5anqXjntaOnEMZ4/sh+Xp6fCAVZFDjd72mw0cPOyVZg/a3Zp67P7+/G/3PUgprsdfOPgbvjYY6DZwtyBWVgxZy7m9M+CBzA6PY7jY2O4NJOud4hjMXpdTvOgnOkBLsKD6rGuUKNJNS7I8yZNw6oBs+yuHHhh4xSpKpO1DZFsSYxL1DrI3JjTns96zEInV1+oeH+BzDlyBmXElA7rAHrv07GKfB6MPLTFw5oekBijbFVXkSMvK9OdNv7wqW9g7/nTyU4j9JucrMUItVzoxf53wAPrNuO3738Ui2ePBGcNOACLZ4/gE/c9iuH+QQz39+OuVRuwccFiDLT62EDzxMw0Do2ew7f3v4EnDu/FqSuXMRN3GX31JMdiM7GISCcjM7HRV2NY9fw5gP0kc6GQ6kEz17ccTqoAHrSmoj5LiKAVQCJkzSQTCOUjjVLWLdnPFaeqFK5bTWWmmFF4iRIT0pTCryYDWtPh1XW9jsRMt4PJdhtdHwd2kiiusxKJ60QJHb751i447/Gb9/8AlgyPlExCcFg0NIzfuv/diFyEhovMbXwGmy3MGxzCDUtX4iM33oFPv/Y8vrJvJ0anJhTzFA+kp2A8AdhUcTE1SE0VCtCcTR/y0IuMEpcPD9KHyCw+63mXdnBkV7SIt62TIs1iddCMBS+yT+HlvYriTZysQLKqUyd7Ajpgq+xokxTt2+9Te9XPM+EV/cd23MU3DuzGHz3zTVyemixtwQHob7TQihqlG49FzqEvamDFnPn41bsexifuehfmDg5CTFoyiRsbPBG9hhIeaBlSJ9Iil3BWvwVRycCcbL8QqLCMFB3VYq8kTwCwOrJGk1IpDKFy6FGgqFII4FWHl8IrX1Cjq7ZSyENbrK34XYjmNlGQQ6VobiiFz7bhNxTfe7S7XXx930782+9+Ne2bfP9Kf7OJRzZej3/90PuwZGiYn9GXwS/kKjSinXkG9raSZqcI6QI0l/T07BqIiuNuyAtCePi4hETGBxXJOtjc0vfKkccUMs/quQorS3WUCYhRT44qt1qmChnTPELN82b1Ubq1UTGUwmqQLe9kQgZMdtr42t7X8fvf+QpOXR4Nd9ivogw0W7hjxTp8/PZ3YKR/wLLrqrAtJwXd9JQOb/AoLGfmTc+/gfeI4tB3tirm19xQFulMokYJkqQxhlCNHL4GXodPdYuXFbHPDStLYLTW7+p5N5pUcXnMmStFHSw4ulZIa6TF059SKSgPJtttfGXfa/j3T34DZ69crk3POqUZNfDIhq14cM11aEaR8AwSn+QfPy5YxDZK4Hm0IRUH0HJljxUVTUQsEo5ZU9ycZG0xgEW1Af7HRss58IxARixYqSi1xalCqDzjQVIcFyCBo7ZcxjgFSPhkKXHAKpaiK8MPwQNlJ5XgMQqg3enisf2v44+fewLTnXZNOOpNpxhstvCRm+7AvIHBnIoSfolDbFTLQhumBBZPNKxl13TsKVI1BD2/GSyYHW8r/JAnCjGEZDNldPZv37GH+chDi+x/h3TfpUYDjchp+KRSGFXy133lO9VIZJDB5oFSzBLDBMDHHrMG+hBVbOAQe4+JmRkcG7uIU5dHMUl3SjSKcw6r5izA9mvW8TXqYRIW8BrSLT0D6LUwdmU0Vx3v1NLkA3MxSMow9uTAa50akyl2nUpLU7nZEZ0p4/JVy3l94DG04+EJXQrpKnP8FYURl69PsBa4JJtvJUqwfHgu7li9Ae9YvwXPHX4L/23HM8lJN4HBvGyMwqNYfVeZkq2FQKGm4VVf8l5GzyQ9ae+O4dHfbOHe1RvRKBlwnO608dhbu/CXO57BobELiKII1y9ehp+95X7csWJtcDeUVqOBe1atw2P7dyH23SC8DNeUJ8maiuTaG68VPBBUMVKyFk1zGU8/LFbMObJ0EyjO4kpxdJZS5A+oUJnsyhUjTuuIrJPnS8Yp5GCevX+rLpFzWDo8F/vOncJkO4aRfiaUdWg2IvS3Wlg+PA/bV63BAxuux03LV2P+0Gy0Gk0sHZmDz+98ge3sbTEgXdrEitrNg467VJU8zPZ5zhwGD/TySz6gCoDwAHldcwcGsWHBkmBqNfYej+17HX/w1GO4SPbJev7oIZwYG8MnH/oRbF+x1vy24RyuX3QN+qJkZ0O9m0cCj09lhPGEKXEiI5bM5ErhC5nIwilrjXmx/JSLXTO4Sg30QGxrUCXHRPHNGlSRUz34CrTiOy89Q+XAS3m8Mdjqw7/94Q/jj5/5Nj6z41lcmp5MR3sT+KN0f9hmo4FFQyN4x7pNeGDj9di2Yg3mz5qNKEp2HM9avG7xMqyfvwg7Tx1NhYIqgS8OHs+FtmrjgmL3kbISA4WFJJKkPJQwXBZ32CPv4aIIK+bMTSbzBcpUu42/eOV7uDA5jpjwoOtjnLhyEX/68pNBhXDOYeHQMGa3WumxWR5MUoIOv1DiOtM6CtSDIQy5xY+Jy6bVNHVlyDU4BpI0VETWMxN4tJUyYoi0YVZ/WlW+7xNcEKGrn7dSMGPZnPn454+8D3evvRa//60v482zJ+G9R8NFWDFnPu5asxGPbroBd6y9FsMDg8l+pYH6B1v9uG/tJuw6cxzdbtcYgdd0sDYuiHpQao47hBkBEZpiIy5qZbkzpUapOP9vzsBg6c7d5yev4NDo+eIQScKDTjfGS8ePlMIdOYeR/gGcnRw3ZwwUpJNThTIYinqymRBhTwElp64qzE77FPkZc2pKQUBtSejNGyS/pCfxDG9OBLkbEovpclitrUiKWsYmJzAyOIiy4KPVaOCdG7dg7YJF+C/PPYHJ9gzesX4zbl6xFguHR9AfNdCIokpFi5zDPeuuxZ+9+BTa3UkDmgDtLIPdSzE6zswwIeQPWOBa8In0KRqAmdkBqbfpyo7IcuhrNlFVWBskIkmuQ3VLefH0WDhTCeoqhSVXTfKUeCcBQL63pSQ9ya6IPoRSSOb9DKuqrqGAT+onbi69fuKt3Xh0882VTGk1mli/cCn+xaM/Cu+BZiOZn9NL5zZyDluXrsSqufOw60wx+9TR2D67RoGDR5zyPpkQqLa3qVPY6Kqz+3WiT8fIyMjKlWJ0chyhbJFzDnNnzcaWxcvxwrFDRciZ4txqNHDf6o2loLfjLkanJuBzHFJ5KUDLfzjRJ5ITP4vTXEE8g/QUOZVAqq70FBFLE/qkggK45BcfpyD5jvyHZZvkAXgQVq5IlVkbF2Qd1aocnfce/+Hxr2PvmZNo0zOOAyU5PreFgVYLzajRY6YnKUP9/bh/3ZZkRwma7lM5co5z/cDIKpqGWR+bNuQ1c8gsAy+rSMnucWxsFOMz4S19BhpN/Pxt9+OakbloRVEuzn1RA9cuWIyfvfXe4Lex9zh5eQwT7RkUh3lahNIj93rwrgZpmCfyXF5U/Xw8JZJtqI0A0hqkUnAAwlzX0z7kiGpRbT4uyBD0oj6t4a+dOorf+OKf4YXDb/W0S/jVloaLcPOKVWKbywABRM7cg+86rhYYGcVDiIPkaugeo5u+poONY1OTOHjxbBAW5xy2r1iHf/XQ+3D3qvUYavVj3uAsvGfjDfjdd70f6xYsDrYd+xhvnDmRTwk34c157u3nBj35qLagVqlh8jabfDoOIbMhPu+58f148t2K0nGKPC6l/QXVqUveY1ibCDrA+Ib08QkzefYpjmPsOHEEP/anf4SP3fEOfPzeR7BgeKSnI7pCJbHCMdrdLo5cPI9nDu7F3+5+Bc8dPYCZuEuiPBecOm7td+d9nGSvXL3jawkrRfIDom4ynV8E0nlIxXZpS35Mddr45r5duHHZKvQH9sptRBG2r1yL7SvtbFKoTLZn8M39u9ixxkXUJnuNzpIAlRiIsxQy2FHTtcPyPCULHmKlA3PG8LTRT2SSmZnzKI31JF+sOmo8o9vih/sYugLvPSbbM/jPz30X3zu0H7/10A/i7nWbMNhqXVVYFKfzfE5duohnDuzB3+3dhV2nj+Pi1Dja3Q46WQ/RgFEqAY1dnXNoOIe+RhOLZw/jrtUbcN+660phyeU6jZHYhsWuUBOqBCGlKGiXik1qvLpxjG8feAMf3XYnVs1d2DO9yuj4xtlTePXUcTJ2xAhHaJT+ylLKLBgICEzep7Beq+qr6nrLe6Gk45ojmFYgD6MtJIF36vLkKcknO6r1VRqN7Db3JFkfQwr7ZGcGO04cwsc////hx7fdjZ+/50EsGZmHZg/eIvYeB86dxh8+/jU8dWgPRqcm0YnjZB9U8OOyLGtWMDjhaOTSI6caTSydPQd3rdmAe9dei1tXrMW8WbN7OzpMG/f8vrRZ3IkEkh15FR6nLo/hL3Z8D//svkcxUDIm0Uu5NDWJ/7rjaVyZmdJI5I37FH4uM8XgnS9wqhN9yGXOchtNmbgmctRkOf/MUzgi8nkP3mkYADKira0Ud3WF0uQCngJf1FkoQZFJcPQ2AJ9vPZ/ArJcNdr3HhYlx/PGz38bTh/biNx/4Qdy1biOG+wdreYvIOayYtwDvu2k7Dl44h7GpY+h2u6RNkakB0eVUy13k0IoiDDT7sGxkLravXIcHNmzBLSvWYM7ALDTSM67r+K4sL8MECIBK44GGrOQaYNs4cp4UAjTd7eCvd+/AtQuX4QevuwkDrbenFNOdNj792rN49thBdONYZQgTOZPaS+WM+FrL2BIexGl9+WCytZesE0YilzvkFqYR3b71k/acD2F9xRQD74SukR/aIzpmVUmV+XU2ks5sRH7PyU8rDxh0zqETxzhzeQxff/M1jE9O4YZrVmGw1VdLKZpRA2sXLMIDGzZjfHoGe86eQDfvFDoT3mQjCodm5LBw1jDes/km/Nq9j+BX7n033rtlGzYsWoKhvoFkJ++6UzYAzHQ6+IuXnsbFqXH+gApUDoaTP8HeEjRnzPCJUrx04jC2LF6GFSPzKif7hcp0u42v7nsVn3r+CYzPTJs8ytoVomLgIOGVMpTcixw98YDLTNIKd4+W3Dcat2/9ZOhh5SmWgIpnGQMEAlVKwUGQ9zh8TnE0TPBOt4udp47h6QN7sHxkHq6ZMw+NRqNSIJPTUQdw55qNuG7xcuw9cxqXpvl5d0k45NDXaGH1vAV4aOMWfPzuR/DbD7wX792yDesXLMFQfz+iqPq0I6vE3mP/uTP4Ly8+lcyf8gJPmvwg15z8tgBZ194lCvj8sQOY0z8Lq+cvRKuH9HTsPcamJ/HnrzyDTz3/OK5MT7HnzjSkEt4KnKicsegrIGeMXE7fpvRpffxDnjWvdCCiF4Y2Jz/yt6J6wJcpCVMCZDtIB+CjCAaYlt2PXIRFQ7PxkVvuxsfufhALh4bRbNSL39vdLk6OXcB/eu47+PxrL+LK9CT6Gy0sGZ6D7avX4eENW3HTilWYPziMVrPR84CfVWLvcXFiHP/2O1/B53e+kCuiZagsegfv1TFUkcOcvgE8vGELfuqWe7Bm3kK0Gk00nD6cPUkdx5hsz2D3mZP4sx1P4fljBzHRbttyJT2bxIlZdXqvynPklSf8Nu6Zhp8+b/3Sh7xWAglsJGswgeVKIVByqcti3sPwAlYbDEHDFSoEFZVynByAvlYfti5Zjl9/5w/g/g2bMatmGOW9x3SnjSf2v4nnD7+F21etT/oEg8mZ2lFUr09QVmLv0Ym76HS7OHThPP7sxSfwpd07MNlus/SsdS54XavK75UbplYUYf7AEO5cvQH3rdmIrUtWYNHs4XyaeLvbxfHLo3jj9Al8c//reOXkMYzPTCP2sfBMGl6nBc8Mn5wCi3iZ7J0qpTC25OF/km9c65d+zNcJR1hH22IA+SbikJhMKojkSxFy4l6kALUJXnUIuHMOw/0D+Onb7scv3vcuLB4eQd2SHTfb2xhCdenGXRwdvYAnD7yJb+zZiR0nj+HKzFTiGZzI7AWtqLwnglD5jlIKScfkb+SiPFM20tePkYFBxN5jdGoCE5022t1uQheS7ak6mF2FTwQeKjPO5HlZWM7bsSIMKeOZUqQKAaUAdp9Cegpbo4OeQimEhQyjhOpTRJxSisBl8Et4HRwG+1q49Zq1+PUH3oM7Vm9AP9mE6++zeCQj1O1OBxcmxvHtt3bhyf178Nqpo7gweQUz3S5iY0A1qrK0zBJymocVIsQDKcSp4XIOWQ/MO/B1BjWUQBVnG1YTXvLAxNHwdJG8VxZd5AphfGAj1GP4xCFSQl+pKIFwCtAbcZnw1nin2WhgqK8fP3nLPfjY3Q9i6Zzexi3qliQlnIx6Hx+7iGcO7cUT+97ASycO48rMFDpxNz3zTZJT01x6ytLw4+3G5PQeeSjDkRDNK3kQ8AJmdjHk/YKKXdQRFY1J7Egf4hd/TO+mWBb75d9H6n2tnLqzLd2c9nC26wtlDqhSWPFhCAeLIX3NJm5csgK/8eAP4J5119XuW5QVn/YJJjszODE2iu8d3Itv79uFN86ewsXJcbRTJVCunA1agilFVMvKEvpa92oIkKrBaQGylMJZQtdjSFuGE/+pvYmJE4PXwjGdSdD6xR/zvEH9gQK2Vn+iqKDoU2g3l/ciyqySCp/4B5GyUJoBEocQ8SPnMGdgFj566z342N0PYdHwbLSi6rn+tMTeo9PtYqbbwfHRi3jywBv47v492HHyMC5PTaKb9kHYmGSllU2JmMf0NQSK4CV5ogyTxQjpnUtDWP5tHSWo19EuCZeChjVsSK3wialy8xc/WEyyYC/7SoSSe2VpWcO90rSs1GgGp9MIGgwJhU/hNHI9JjWiCBsWLMG/fPT9uH/DFvTXWgDj0Y1jHLl4Dk8f2JNMAjx+ADOdjp7DqKyUQlD0iQgVhRDyzrY2TKWdUkH4OqGHBb/tKeS1Dp3q8ETjoKSgfvjkRDpW/OEKIYltWinZ+NWkZK0Qqz4DLKWw48OK2NW6RyxQ5CIsHJqNH992F37u7gexeHgEEcE3myYy0+3g1KVRPLn/TTy+bzd2nT6OcxNX0kmA9TYnNhVC0DqnpCFUVSnZOn0M0/IanjuEg+SBJS8WfPXCJ8vIBXAQMFs4BDvazV/8YGa4ilGCEqWwgRX596oBPDP7ZF9zmn4/rJSBk6HEjrTQ32zhxmUr8Wvv/AFsX70OA80WOnGMo6Pn8fT+PXjqwB68dPwQLk+nHWOWfrRhLo/ZC+9sew7d4Y8CIaAghOnBnXVd5SnkvQrLezV9CMtQadCqQkIJPwdMKXHzFz7oFc0DsWg5MpFxT7uXiElvDwgaShr2FDYOrhKHsFWKIodZff3YMH8JVs6Zj3MTl7Dv/BlcmZ5GHMfJssoKy1qaZq5Q2lreGUIxagqMpTgWvL3gEFlKcRWKUrejXY5jmCdMKQC45i98oJikXuK+ZSzo4a/aUwSVIqgA5QhRYYmQLRrRIaBSCF/RTwp4DrbPj+wn1cbBBYUl5K2Vtwtsb8OVon6mxm5DErEi5Ev/RMLTsXfepueo108qGxDmENHwKVJLE+kFHRVi64WzabhyXaLcxtHzLQOzpX/ZNdlLtnieTnZmsGQCCLHGVvzy8qwBiQMFTZ4GapR0mSXbATxd8lng7lGKA+cSXz7LQCwuvICBs5PiwJejJsyVb9pn3ilE1bUx3ZyAbb1KL2J4tSTYIK9kaq39YiFGxAFnNCPOEaG/hAwVB0F6sc6Hs8bA3gaOC5q9nziHgXwQC+ClwBMBM4Gx4PNiL1MNRQk6XtWlySCOqyWoSB03ATVxROB5oSS5AJUUfQgkFI8YNQTh5T1LoBT8MKvnOOS/hAJY6BtKYu0BzGliw89JZikFoR2yNTjeFhZPK8kakJvGQn+rlMJgeG5BMkhigRAKsbMXyHPY2KJ5hqSAWeyykB0KXnUGstpIwUueW56CGEDOKSVKfDMG6Sm8YIMUmNRTUOUUiqEOP5cCL+BT9BaGydpRxVJadhyCL2nK2h2DAcHMEGeE4IFlfOXuJCFmRhIhjplAMI8SfIh2mkkEYYshMYGEqlddBAI2xiC4/Kza+1UfDG6poOdCEIRPCpVUFOOJF/cU/DWO+DIEhtfn+LWXwkBqUp5M8MUXUFne2gucZBv5kWpU/mQIHmCjpehhI1Tc5udUM8sb9OOKVQzoiuKNKuIQ1UziU4IJdyitanplbcUvEA7iYG7XbwDBBdT2tiYOQRoVSu3KPpDhR9VJRmVGJq/PBz8tc5waxAKHSFxbH2Riq45UUw3oCriC2caFo0dMDbmOFBM9rFvKSlkMskIN01MYJMz1gYRPvH6vFUDRx+eGSn5fxPee8UUfzi5w9IanKHWNWXte9CcIfYPwFoBRw1Q4ZO0dZYjioJXC6ldYDlZ7Dn3ACf+mgE/SQFrj/OS2kIcndbD1+4QvQUXxxZdFlbl6KR6Ume6Iv2GFT9Kt1TBzVc5ChR6ArfWyvnIvZYMgXblRnPzWUNmy0EPiROCVSlHdsffGL+OCoOSt12o4bF2/DZ90KqaRt6yogDckOlKufC06WRV5GzaDMHIDvew64l9xhJTro9hL18MIZngKA4GQpwBQkn0yYj/FkMLyyjaKbTP5x9ozlChR7l5KQiwCuHR6ObzCyipPASEsEiQFL+VYRX8iC/WUpXWMrdqFyFDDAkF6No6DxQPZVFJfuVJkXoMrTyC6UDgRPpDrKKDvmuDEKtmeQkspS5+lblyHT7qTl3e0rTPvgvAa560p+Ei1BF5L8YPhlKhZjbOYxlAqiQWhFDIrfKK3uSGyDAeM01HjMiXOAPDaEFkhFmdMgC+WTEulyNvwiua1lERFRUTRpVIwmHWJfLDx6njL9oFhzxDs8JXsDWsP3mVIl3kKSSnr2qra+oZaFG8PkkmhUjS1sk+yekMpBM7VOBhKIklqjbWodyUOtiX2xuthvagbBlEcDPNSJy1OeWIphaJ30k6kapFYstCDW1Wf1VbCoAwBfq13TJa6aI1TWF7c4kpo3IIKfJHUMlw39xmpPHCl8Cr8gGrUG4ThyTSyV6vJJH7X1m2tJGrwK/MU5J3Y8uZGDKMxsE8SVe+w8EnyKOWBtzrZ2jDl9K/QJ192T6PGf6TPswNkNNkNK2UJpFQUmNeAHn3UmWmVY4bIxNLD5XPAreN2JUO0a9bhk8ApIOQKJ0F8rzkrPLSOcTL4TRwE/JWDdwEcvKZmtafghNWW1rr2XMVVx7W4ElAJ+RB8Iq0E6W/2iWSyQ4a94lFEgeUSb3wVpFzgtdC9HH5zb30l8LFRadj1hZovfjlxi41TSEXvpVh9DFoTEVh2RK7pnTVdgs3WhNd6GlcoeYZD0GaaoHv+In0auG0dGWyTuB68EnHuXb0hLMk1H5izfnlRq+H6WJ5chhJm3fQVa5qH1dGGoJw0YJZPlMSQZ1MUOFkhlGVlKw+Xz62SCSSjnVYKH6AR/06FsAFvbVpZEToB1jiFPSHQNEICR6kkOQnFA6vvGhynsDKAggcSNNN70EqcEfF4X8xlCjFDMzKgwPlNV16DoZ0hpZDXwVmy9BvFSeh7MtToEWPTKpWNoyQvwOrk5eiYtGSflxcf/FTRRR7aYn9iyENAKfh1lRxVhxWxeGqFN1JJ6nsK2QfiEBizXb1WHQmVNywtBUK5RSM+rKEU2iFZKVneqQsNLZnTPKSlBbVSFg6cAaXu2zKV2XeEbKwt5oks2hrwC2/I4JXfWTQnt2LDquqSJkeFIVU2zGscrGya1U8qcAyEXKB8C9A/r8IynNRzciUuxiEkQ+xadIPytSCCBoHFc2t+v9Usn+ZRMIV5O+WmpTWwhMiAlaHhNTASViMxwOp3xj14MbWEKLowTObUFYFP8ZlnAhDQUU7bGuEIQ0IKVa7Ntje0FMVigJxKX7QQwDsEr4kDYYRQbL3kirqSUuJZgNkuNPBZZmvCDfGevmKArDjnVRkORkglLW/GEHkvCGOJZVWDeanAWKFAXkylsXCyhM6XyZlqrHJEGyGBssRR116hfzm8Fg8sHJUnMuCr9N5B2NjkPgsr20pxtyYJ4YM42QhDLSNU2SeT6q4IN9i35fhk75TD53k4Q3Dy5Ln6NMAAH1AaB0G39Cq2whEBbIWd5PDKF1T4ZytFLHCQIWFykE4VzS2vYMwqsJTCE68p+UgqcILeFg9yHERcKm1LZLo5CgR9bBbLghoIlnxjDbpIJpmDYXA8dKLjFNRLKKYI4ioGFY+YpwhjU48h4D0cKyWbKaFsVzlLGT4F2EDbUeGfpHdVR1uAQJWCErl0lixrU9RcygMDB1GtLUcVPkooRUQrtBGQNooFdZwhBsE9abjMU4Scq1IMpbSW04fNEIEDB8majCaEkxkJbfWriS/QDloa7SkYLSmUQaXIGsu+1aGHGizljaQwlAdFmVKEPSWjWMk0Fc4DKYdSKRgPashRCPziq+RBpIgdxN8Y/bUoabhmJmRWeJK/Lq/t01GlLjKlsCYEUqHy4kGVlfKkWs0nI/ww3HSPVkpJJoG3XKi4YUqKAxMgZYjAaQ5jnAIkfLKUOABv4sMVsxQPKsMnVYd8Ws0DxRMFfwJxVBEPVRRDoEqEylYKi7YSwdiuMMSQkpV3+uuqBS7FPWvlXSGmmgxhJAOpYdQvpSEsw8EbTy0eCaUwquSv1/EUvrSO5F6xG4mqTylmiWGSbVSFTtaAKth6CGt01W6xZOQ7v/CSIWVKYY1TVGuNusfce96fCOMg6MMR8b7whuTlWLwGECtILE3lUsiAlZWdPr2di3JRBb0VDmVGyGv2MvDiFPVCOepM88g5x2hh2nRybXg6do8b2ljUYGHBQtqcpdVjR+K4aXt9AoeRMjmr0KKs5wyxGGBZKanlOTJyKWrm+rhk6lmyFuhh110wwEnW5PDlg3cELSsckSW0uwcHy5k8sBQxFD7J5AFTCi9wYnXJcCpWGWAz+2TxS8kMaZhOLSkNnwqxYMgwHlBMDMPqvV4RWaIUEcq0nGEmrwOcLw0/6K+QAPF39AxHa0RbK62cZm0SN4BDqRKTXzLtm32nU67lDOHe2Zs01EphwV/zWnln+kYmdFRoe5zmIUMIyZ48VyvVUoJty6aJA63f8AxVCRDSqQ5BLcMWaZokPCEGCaSVQ7EEoAJ4w1toOiZXeVrWDJ8sKwUTHgcbh9xKkU+dwKHOGm2UKIkn/5nj+N78PPCcew6bBykWjMdVU8etHoRtWFUnmgETThxYo/ThfZ8MY1VmmNKIIzKZIe8FjWl9L8HDJ/Wn2rhVFHvHvRIPIJVa/KpKD9Jid/nlYKOhFOq6WshypVCGBQbDNQ4WD0LQhEfMAyXg2czBQXEdEjFh+zmfcqNUD8A6aQu+yYDlWqQrUK6wiP147Gp4l6BSBEjBmvaoTMvmfSApsF5MjpGw2TiEsk9Bq6qutaeTg4vW6C+DkFm94kcMTV8PGh7Yim3xQIYa7FqlZIu0rJo2nuEoyMB+prDpuVUU3oIfiozSU0ilYIEOY1gOnwCYXeo+hHOyVkN7S8yTDD3M54Frc/CuPNzwnnWjU8PmSLUkdCI/WJTkAdscelOgOHzJH2vjgkKooEsoA5UaJqfe1e6MDM6z51XejiuFYLAIPWSoUctxS8/moa4FujqkEm5chuWW0oU2LrCMK2+/uFYLhLIpEQJDCJQUgUsJJqC3RiMt3QkR0OmNlAQ/vLHbXXiREaF4oD7t/VT4AdsJGeyD3EY/v1dyrQwTeVyMRYbFtWKigKgy4BrzK96HszyFqQS+JFlTEweNk2W1uQGxeKC8X+qt/39WvioGaGsFnAAAACV0RVh0ZGF0ZTpjcmVhdGUAMjAyMy0xMC0xN1QxMzozMDo0NiswMDowMHRhE7sAAAAldEVYdGRhdGU6bW9kaWZ5ADIwMjMtMTAtMTdUMTM6MzA6NDYrMDA6MDAFPKsHAAAAAElFTkSuQmCC;" vertex="1" parent="1">
          <mxGeometry x="1038" y="-586" width="70" height="70" as="geometry" />
        </mxCell>
      </root>
    </mxGraphModel>
  </diagram>
</mxfile>
